<?xml version="1.0" encoding="UTF-8" standalone="no"?>
<!DOCTYPE svg PUBLIC "-//W3C//DTD SVG 20010904//EN"
              "http://www.w3.org/TR/2001/REC-SVG-20010904/DTD/svg10.dtd">

<svg xmlns="http://www.w3.org/2000/svg"
     width="16.6667in" height="37.9306in"
     viewBox="0 0 1200 2731">
  <path id="Selection #21"
        fill="none" stroke="black" stroke-width="1"
        d="M 523.00,1092.00
           C 516.80,1088.68 515.25,1086.12 508.00,1087.00
             508.00,1087.00 521.50,1108.00 521.50,1108.00
             521.50,1108.00 521.50,1120.00 521.50,1120.00
             521.50,1120.00 522.00,1129.00 522.00,1129.00
             523.73,1128.72 526.83,1127.95 528.42,1128.31
             537.96,1130.45 532.84,1140.25 537.31,1145.96
             537.31,1145.96 559.00,1165.72 559.00,1165.72
             559.00,1165.72 574.96,1180.01 574.96,1180.01
             574.96,1180.01 623.80,1239.00 623.80,1239.00
             623.80,1239.00 646.88,1265.00 646.88,1265.00
             651.26,1270.64 652.10,1275.65 659.46,1283.95
             663.93,1288.98 667.06,1288.52 669.40,1291.39
             671.62,1294.12 670.44,1296.94 672.02,1299.96
             674.40,1304.50 682.27,1309.25 687.00,1311.00
             691.57,1297.29 691.34,1296.48 704.00,1288.00
             704.00,1288.00 696.00,1281.00 696.00,1281.00
             702.98,1274.57 706.58,1271.26 710.00,1262.00
             710.00,1262.00 700.00,1262.00 700.00,1262.00
             700.00,1262.00 699.00,1254.00 699.00,1254.00
             701.55,1254.21 708.17,1255.56 709.96,1255.11
             712.84,1254.40 719.81,1246.96 719.80,1244.00
             719.80,1241.65 717.45,1239.60 716.00,1238.00
             724.25,1234.12 723.20,1235.50 732.00,1241.00
             736.76,1231.11 741.93,1225.90 743.00,1214.00
             743.00,1214.00 729.00,1212.00 729.00,1212.00
             729.00,1212.00 731.00,1205.00 731.00,1205.00
             731.00,1205.00 739.00,1204.00 739.00,1204.00
             739.09,1195.25 741.01,1193.81 744.42,1186.00
             745.46,1183.63 747.17,1179.41 749.39,1178.03
             753.01,1175.77 755.30,1179.18 761.00,1176.00
             764.79,1173.88 773.32,1166.45 777.00,1166.39
             778.66,1166.37 782.93,1168.35 785.00,1169.00
             785.00,1169.00 789.78,1160.00 789.78,1160.00
             789.78,1160.00 790.60,1148.13 790.60,1148.13
             790.60,1148.13 799.60,1141.57 799.60,1141.57
             799.60,1141.57 801.28,1133.00 801.28,1133.00
             801.28,1133.00 803.00,1116.00 803.00,1116.00
             811.18,1116.69 811.33,1119.11 819.00,1115.00
             819.00,1115.00 815.85,1107.00 815.85,1107.00
             813.86,1101.55 817.38,1096.39 823.00,1100.40
             830.09,1105.46 833.13,1113.21 838.00,1120.00
             838.00,1120.00 843.00,1117.00 843.00,1117.00
             843.00,1117.00 841.19,1108.00 841.19,1108.00
             840.67,1105.18 841.40,1104.17 841.19,1102.00
             841.47,1099.24 840.60,1098.17 840.46,1096.00
             840.46,1096.00 840.46,1090.00 840.46,1090.00
             840.46,1090.00 839.03,1082.42 839.03,1082.42
             839.03,1080.07 844.49,1069.75 841.16,1061.00
             837.02,1050.10 830.50,1051.07 826.32,1047.49
             823.29,1044.90 820.65,1039.75 819.36,1036.00
             819.36,1036.00 814.24,1019.00 814.24,1019.00
             811.81,1014.50 807.77,1011.23 804.96,1007.00
             803.72,1005.12 802.93,1003.23 801.37,1001.52
             799.13,999.07 790.20,992.95 787.00,992.62
             783.04,992.21 774.80,996.95 771.00,998.69
             771.00,998.69 737.00,1013.72 737.00,1013.72
             737.00,1013.72 690.00,1033.85 690.00,1033.85
             690.00,1033.85 667.00,1043.22 667.00,1043.22
             664.13,1043.68 657.26,1042.33 654.00,1041.87
             654.00,1041.87 626.00,1037.39 626.00,1037.39
             626.00,1037.39 604.00,1033.20 604.00,1033.20
             600.17,1032.43 595.37,1031.95 592.28,1029.49
             592.28,1029.49 577.83,1014.00 577.83,1014.00
             577.83,1014.00 555.28,989.00 555.28,989.00
             551.95,985.21 542.12,972.92 538.00,971.69
             535.57,970.96 526.62,972.25 524.00,973.00
             524.00,973.00 522.98,958.32 522.98,958.32
             522.98,958.32 502.60,942.82 502.60,942.82
             502.60,942.82 499.50,929.00 499.50,929.00
             499.50,929.00 497.00,921.00 497.00,921.00
             488.92,923.10 484.09,923.17 478.30,930.00
             476.66,931.95 474.72,934.28 475.14,937.00
             475.54,939.64 485.50,953.75 487.67,957.00
             487.67,957.00 507.67,987.00 507.67,987.00
             510.27,990.91 519.13,1003.52 520.30,1007.00
             521.28,1009.89 521.98,1018.72 521.93,1022.00
             521.93,1022.00 521.93,1046.00 521.93,1046.00
             521.15,1050.64 518.38,1051.88 518.29,1055.00
             518.22,1057.44 520.28,1059.19 520.91,1064.00
             520.91,1064.00 523.00,1092.00 523.00,1092.00 Z" />
</svg>
