<?xml version="1.0" encoding="UTF-8" standalone="no"?>
<!DOCTYPE svg PUBLIC "-//W3C//DTD SVG 20010904//EN"
              "http://www.w3.org/TR/2001/REC-SVG-20010904/DTD/svg10.dtd">

<svg xmlns="http://www.w3.org/2000/svg"
     width="16.6667in" height="37.9306in"
     viewBox="0 0 1200 2731">
  <path id="Selection #1"
        fill="none" stroke="black" stroke-width="1"
        d="M 473.00,2463.00
           C 473.00,2463.00 473.00,2469.00 473.00,2469.00
             463.29,2466.39 459.38,2463.02 452.00,2473.00
             446.11,2468.25 442.90,2469.41 442.00,2477.00
             437.32,2476.94 435.48,2477.39 433.00,2473.00
             427.82,2473.00 422.32,2472.12 418.39,2476.23
             414.80,2479.97 412.81,2489.06 407.00,2489.87
             404.70,2490.20 401.27,2488.32 399.00,2487.59
             393.97,2485.99 388.46,2486.23 384.30,2482.58
             380.89,2479.60 377.61,2472.57 372.10,2473.42
             368.32,2474.00 367.08,2478.86 364.39,2481.57
             362.07,2483.92 359.92,2483.81 358.30,2486.30
             354.14,2492.68 358.56,2499.61 360.10,2506.00
             360.67,2508.36 360.90,2512.63 362.60,2514.26
             366.72,2518.24 372.09,2511.83 374.65,2521.00
             375.31,2523.39 376.94,2539.07 376.60,2540.96
             375.89,2544.84 371.89,2546.43 372.72,2549.73
             373.50,2552.85 381.70,2559.20 388.00,2557.68
             390.63,2557.05 393.34,2555.02 392.95,2552.00
             392.66,2549.74 388.91,2545.68 387.53,2543.00
             385.20,2538.49 384.41,2533.01 384.00,2528.00
             384.00,2528.00 394.00,2528.99 394.00,2528.99
             394.00,2528.99 415.00,2528.00 415.00,2528.00
             415.00,2528.00 425.96,2525.01 425.96,2525.01
             425.96,2525.01 433.09,2527.86 433.09,2527.86
             433.09,2527.86 452.00,2525.00 452.00,2525.00
             452.00,2525.00 454.00,2532.00 454.00,2532.00
             459.15,2530.24 460.44,2528.72 463.00,2524.00
             463.00,2524.00 465.00,2524.00 465.00,2524.00
             465.00,2524.00 468.00,2529.00 468.00,2529.00
             470.05,2527.65 472.85,2525.51 475.00,2524.56
             479.12,2522.79 480.21,2524.14 484.00,2524.56
             489.39,2525.11 493.57,2521.62 497.69,2527.11
             498.59,2528.31 499.18,2529.46 499.12,2531.00
             499.01,2533.92 494.77,2538.48 493.00,2541.00
             493.00,2541.00 503.00,2538.66 503.00,2538.66
             503.00,2538.66 511.00,2542.00 511.00,2542.00
             518.29,2525.08 517.95,2530.68 521.79,2524.82
             525.98,2518.44 528.94,2508.55 530.00,2501.00
             520.96,2502.98 525.48,2499.82 516.00,2499.86
             503.89,2499.91 502.53,2490.73 498.65,2485.14
             496.11,2481.49 494.14,2482.21 491.63,2479.57
             489.79,2477.64 488.98,2474.87 487.79,2473.31
             486.01,2470.97 484.43,2471.15 482.41,2469.44
             478.80,2466.39 480.94,2465.20 473.00,2463.00 Z" />
</svg>
