<?xml version="1.0" encoding="UTF-8" standalone="no"?>
<!DOCTYPE svg PUBLIC "-//W3C//DTD SVG 20010904//EN"
              "http://www.w3.org/TR/2001/REC-SVG-20010904/DTD/svg10.dtd">

<svg xmlns="http://www.w3.org/2000/svg"
     width="16.6667in" height="37.9306in"
     viewBox="0 0 1200 2731">
  <path id="Selection #7"
        fill="none" stroke="black" stroke-width="1"
        d="M 47.00,1984.00
           C 47.00,1984.00 43.00,1984.00 43.00,1984.00
             43.00,1984.00 46.79,2000.00 46.79,2000.00
             47.14,2005.43 44.76,2012.58 46.13,2018.00
             47.48,2023.30 55.56,2034.35 55.84,2045.00
             55.94,2048.94 53.84,2050.50 53.31,2054.00
             52.76,2057.69 56.28,2068.90 56.88,2073.96
             57.55,2079.61 55.49,2081.46 50.00,2080.00
             50.01,2086.15 50.73,2087.24 48.00,2093.00
             51.75,2092.55 52.67,2092.69 54.00,2089.00
             58.93,2090.81 59.21,2091.79 64.00,2089.00
             64.00,2089.00 64.00,2095.00 64.00,2095.00
             64.00,2095.00 67.00,2094.00 67.00,2094.00
             67.00,2094.00 65.00,2103.00 65.00,2103.00
             65.00,2103.00 69.00,2104.00 69.00,2104.00
             69.00,2104.00 68.00,2110.00 68.00,2110.00
             68.00,2110.00 78.00,2102.00 78.00,2102.00
             77.96,2105.96 78.15,2108.62 75.57,2111.96
             71.18,2117.63 67.68,2115.38 65.00,2123.00
             77.39,2122.72 75.97,2118.94 81.21,2114.68
             81.21,2114.68 86.79,2110.73 86.79,2110.73
             90.51,2107.24 89.49,2105.71 95.00,2104.00
             95.00,2104.00 94.00,2100.00 94.00,2100.00
             94.00,2100.00 111.00,2101.00 111.00,2101.00
             109.77,2102.81 107.21,2105.97 106.81,2108.00
             106.34,2110.31 110.16,2119.41 111.90,2121.00
             112.87,2121.88 113.33,2121.73 114.00,2122.00
             114.00,2122.00 109.56,2131.28 109.56,2131.28
             109.56,2131.28 107.73,2140.00 107.73,2140.00
             107.73,2140.00 103.52,2148.00 103.52,2148.00
             103.52,2148.00 102.20,2163.00 102.20,2163.00
             102.20,2163.00 97.06,2171.00 97.06,2171.00
             97.06,2171.00 94.35,2182.00 94.35,2182.00
             94.35,2182.00 89.58,2194.00 89.58,2194.00
             89.58,2194.00 93.00,2204.00 93.00,2204.00
             93.00,2204.00 99.00,2203.00 99.00,2203.00
             99.00,2203.00 98.00,2212.00 98.00,2212.00
             91.59,2212.69 88.72,2214.10 90.00,2221.00
             90.00,2221.00 95.28,2219.12 95.28,2219.12
             97.42,2218.59 98.98,2219.29 100.48,2218.58
             102.18,2217.78 102.68,2215.54 104.97,2214.54
             107.30,2213.52 108.72,2215.16 111.50,2212.64
             119.33,2205.53 116.36,2199.44 119.35,2192.00
             122.83,2183.34 127.83,2177.38 129.44,2174.00
             129.44,2174.00 131.81,2166.01 131.81,2166.01
             133.20,2162.75 135.01,2161.60 135.71,2158.83
             135.71,2158.83 137.31,2128.00 137.31,2128.00
             138.16,2124.41 140.97,2122.20 143.00,2117.00
             138.04,2114.15 132.75,2107.09 133.81,2101.00
             134.35,2097.89 136.65,2095.34 136.22,2092.00
             135.41,2085.73 126.11,2078.88 120.00,2078.76
             118.24,2078.73 115.76,2079.56 114.00,2080.00
             112.27,2073.57 109.78,2071.69 112.00,2065.00
             110.41,2063.69 109.05,2062.80 108.02,2060.91
             106.28,2057.70 106.61,2050.08 108.60,2047.04
             111.79,2042.16 117.09,2039.54 115.62,2032.18
             114.91,2028.64 110.82,2027.58 109.02,2024.68
             108.13,2023.24 108.02,2021.54 107.44,2020.00
             105.37,2014.48 104.21,2016.39 103.00,2008.00
             92.72,2005.79 98.17,2001.11 96.99,1995.00
             96.56,1992.79 95.16,1990.89 94.00,1989.00
             84.82,1991.16 80.16,1996.44 75.28,1991.73
             70.45,1987.09 73.34,1978.00 73.83,1972.00
             74.24,1966.93 69.99,1955.10 66.93,1951.32
             63.51,1947.10 54.43,1952.08 51.61,1955.22
             47.66,1959.61 43.56,1966.94 44.11,1973.00
             44.11,1973.00 47.00,1984.00 47.00,1984.00 Z" />
</svg>
