<?xml version="1.0" encoding="UTF-8" standalone="no"?>
<!DOCTYPE svg PUBLIC "-//W3C//DTD SVG 20010904//EN"
              "http://www.w3.org/TR/2001/REC-SVG-20010904/DTD/svg10.dtd">

<svg xmlns="http://www.w3.org/2000/svg"
     width="16.6667in" height="37.9306in"
     viewBox="0 0 1200 2731">
  <path id="Selection #16"
        fill="none" stroke="black" stroke-width="1"
        d="M 193.00,1352.00
           C 193.00,1352.00 188.42,1378.00 188.42,1378.00
             188.42,1378.00 180.39,1422.00 180.39,1422.00
             180.39,1422.00 176.75,1442.00 176.75,1442.00
             176.27,1444.75 174.99,1449.42 175.65,1452.00
             176.53,1455.48 188.21,1470.11 191.13,1474.00
             192.79,1476.22 195.82,1480.71 198.17,1481.96
             202.37,1484.20 207.31,1480.14 211.39,1483.60
             213.50,1485.38 216.88,1492.28 218.42,1495.00
             221.27,1500.03 233.87,1521.15 234.75,1525.00
             235.46,1528.15 234.41,1531.86 233.80,1535.00
             232.35,1542.54 231.32,1550.36 227.01,1556.96
             224.06,1561.47 220.44,1562.40 218.72,1566.17
             217.90,1567.98 216.35,1578.64 216.18,1581.00
             215.39,1592.14 223.12,1598.36 229.85,1606.00
             229.85,1606.00 248.05,1627.00 248.05,1627.00
             250.84,1630.14 257.84,1637.67 259.43,1641.00
             260.82,1643.92 261.56,1649.67 262.00,1653.00
             269.85,1654.31 268.44,1659.66 271.79,1667.00
             271.79,1667.00 283.13,1689.00 283.13,1689.00
             284.72,1692.71 286.56,1700.00 288.70,1702.70
             294.52,1710.04 302.43,1705.99 306.19,1710.31
             306.19,1710.31 311.25,1720.00 311.25,1720.00
             314.57,1726.64 319.46,1737.24 323.44,1743.00
             333.42,1757.47 335.39,1756.68 349.00,1766.87
             349.00,1766.87 375.00,1785.19 375.00,1785.19
             378.72,1786.81 398.38,1789.79 403.00,1790.00
             403.00,1790.00 400.00,1773.00 400.00,1773.00
             403.12,1771.50 407.72,1768.53 411.00,1768.26
             416.92,1767.78 423.02,1774.46 428.00,1777.11
             431.72,1779.09 433.26,1777.99 435.67,1779.68
             437.90,1781.25 439.39,1784.88 442.21,1787.70
             442.21,1787.70 448.96,1793.30 448.96,1793.30
             448.96,1793.30 458.68,1804.00 458.68,1804.00
             458.68,1804.00 467.00,1817.00 467.00,1817.00
             470.91,1814.06 472.31,1812.27 474.69,1808.00
             476.03,1805.58 477.63,1801.42 480.21,1800.19
             483.18,1798.78 489.96,1801.01 493.00,1802.00
             493.00,1802.00 494.69,1790.00 494.69,1790.00
             494.69,1790.00 492.68,1781.00 492.68,1781.00
             492.68,1781.00 495.30,1775.00 495.30,1775.00
             495.30,1775.00 497.00,1767.17 497.00,1767.17
             497.00,1767.17 502.00,1757.00 502.00,1757.00
             505.34,1757.47 511.05,1759.24 514.00,1758.38
             514.00,1758.38 521.00,1754.84 521.00,1754.84
             527.22,1753.26 528.09,1760.43 531.41,1762.61
             533.13,1763.74 538.09,1764.74 540.23,1768.19
             542.46,1771.77 539.20,1776.84 546.02,1776.77
             546.02,1776.77 558.79,1775.13 558.79,1775.13
             561.76,1773.81 562.49,1770.99 565.21,1768.18
             565.21,1768.18 571.41,1762.68 571.41,1762.68
             573.37,1760.15 572.82,1757.82 575.31,1755.85
             578.37,1753.43 586.14,1753.03 590.00,1753.00
             588.58,1751.07 585.31,1747.59 584.60,1745.83
             584.60,1745.83 583.57,1740.01 583.57,1740.01
             583.57,1740.01 577.40,1727.11 577.40,1727.11
             573.14,1721.15 565.69,1723.09 561.63,1718.70
             558.73,1715.56 553.47,1702.66 550.96,1698.12
             548.83,1694.27 547.33,1694.88 544.96,1691.78
             543.15,1689.41 538.37,1679.18 537.00,1676.00
             544.80,1673.45 549.70,1671.86 552.27,1663.00
             553.16,1659.90 551.97,1658.02 553.68,1655.04
             555.27,1652.26 562.47,1647.18 558.97,1640.00
             558.97,1640.00 545.22,1623.00 545.22,1623.00
             542.67,1618.49 539.21,1604.61 535.59,1602.29
             533.36,1600.87 523.41,1600.45 520.00,1599.79
             515.32,1598.89 502.72,1591.72 499.96,1587.90
             497.79,1584.89 493.92,1576.64 493.12,1573.00
             491.92,1567.57 492.01,1560.82 489.36,1556.00
             489.36,1556.00 477.72,1539.00 477.72,1539.00
             477.72,1539.00 452.87,1503.00 452.87,1503.00
             452.87,1503.00 446.85,1490.00 446.85,1490.00
             437.88,1469.10 436.72,1464.24 423.28,1445.00
             416.47,1435.25 415.71,1431.68 405.00,1426.00
             401.37,1431.45 391.87,1444.40 390.53,1450.00
             388.03,1460.49 391.81,1477.79 382.00,1484.71
             377.57,1487.83 376.35,1484.34 371.00,1482.13
             363.06,1478.85 354.47,1478.10 346.00,1478.00
             337.56,1477.89 337.33,1476.14 330.00,1474.16
             330.00,1474.16 313.00,1470.97 313.00,1470.97
             303.53,1469.37 303.44,1472.44 300.67,1470.97
             296.79,1469.02 295.63,1463.88 295.74,1460.00
             296.17,1445.00 280.08,1430.16 272.21,1419.00
             267.38,1412.15 268.75,1403.54 265.27,1398.00
             265.27,1398.00 256.01,1387.00 256.01,1387.00
             256.01,1387.00 236.00,1359.00 236.00,1359.00
             218.45,1363.27 208.83,1354.45 193.00,1352.00 Z
           M 394.00,1599.00
           C 395.80,1601.25 400.61,1608.08 402.32,1609.41
             405.44,1611.83 406.44,1609.98 412.00,1615.06
             414.32,1617.18 419.20,1622.86 422.00,1623.56
             426.04,1624.58 429.70,1619.23 433.00,1618.23
             436.70,1617.10 440.42,1620.83 443.00,1623.00
             443.00,1623.00 436.96,1630.36 436.96,1630.36
             436.96,1630.36 430.17,1635.27 430.17,1635.27
             430.17,1635.27 428.00,1648.00 428.00,1648.00
             423.79,1645.39 422.79,1640.47 421.00,1636.00
             421.00,1636.00 404.00,1643.00 404.00,1643.00
             404.00,1643.00 389.00,1619.00 389.00,1619.00
             389.00,1619.00 400.00,1618.00 400.00,1618.00
             393.73,1612.74 392.89,1614.63 390.42,1612.83
             387.27,1610.33 387.98,1604.92 390.42,1602.11
             391.44,1600.75 392.63,1600.02 394.00,1599.00 Z" />
</svg>
