<?xml version="1.0" encoding="UTF-8" standalone="no"?>
<!DOCTYPE svg PUBLIC "-//W3C//DTD SVG 20010904//EN"
              "http://www.w3.org/TR/2001/REC-SVG-20010904/DTD/svg10.dtd">

<svg xmlns="http://www.w3.org/2000/svg"
     width="16.6667in" height="37.9306in"
     viewBox="0 0 1200 2731">
  <path id="Selection #9"
        fill="none" stroke="black" stroke-width="1"
        d="M 98.00,2005.00
           C 100.34,2005.77 102.55,2006.24 104.15,2008.30
             107.42,2012.52 104.26,2014.54 111.00,2018.00
             110.45,2020.62 109.88,2022.28 111.61,2024.68
             113.63,2027.48 117.62,2028.41 117.98,2032.30
             118.99,2043.23 109.11,2043.75 109.02,2055.00
             109.00,2056.87 109.01,2058.98 110.02,2060.63
             110.94,2062.12 114.49,2064.75 116.00,2066.00
             116.00,2066.00 112.00,2068.00 112.00,2068.00
             112.00,2068.00 115.00,2077.00 115.00,2077.00
             121.96,2076.26 127.79,2078.11 132.91,2083.11
             136.53,2086.64 137.49,2091.57 143.02,2091.93
             145.77,2092.11 153.07,2091.36 155.04,2089.43
             155.04,2089.43 161.63,2078.33 161.63,2078.33
             164.77,2074.71 168.01,2074.71 173.53,2068.00
             180.02,2060.11 181.25,2053.14 191.00,2046.00
             186.55,2040.07 178.68,2044.78 175.50,2035.00
             174.88,2033.11 174.16,2027.92 174.50,2026.00
             175.26,2021.79 184.51,2009.51 187.29,2005.00
             192.75,1996.18 190.07,1992.89 192.82,1986.00
             196.69,1976.34 204.84,1970.50 205.00,1959.00
             205.09,1952.25 205.39,1944.99 197.04,1942.99
             192.67,1941.94 191.46,1947.17 189.10,1949.68
             186.85,1952.06 184.96,1951.77 182.00,1951.10
             172.82,1949.01 171.18,1944.18 164.00,1940.53
             157.50,1937.22 152.93,1938.08 146.00,1938.00
             134.97,1937.86 120.97,1929.97 116.00,1929.75
             111.65,1929.56 109.14,1933.12 108.07,1937.00
             107.93,1939.00 107.98,1942.85 108.07,1945.00
             108.02,1947.20 108.38,1951.06 108.07,1953.00
             108.07,1953.00 100.67,1966.00 100.67,1966.00
             100.67,1966.00 95.74,1985.00 95.74,1985.00
             95.19,1989.55 98.45,1991.22 99.35,1995.00
             99.95,1997.52 98.44,2002.15 98.00,2005.00 Z" />
</svg>
