<?xml version="1.0" encoding="UTF-8" standalone="no"?>
<!DOCTYPE svg PUBLIC "-//W3C//DTD SVG 20010904//EN"
              "http://www.w3.org/TR/2001/REC-SVG-20010904/DTD/svg10.dtd">

<svg xmlns="http://www.w3.org/2000/svg"
     width="16.6667in" height="37.9306in"
     viewBox="0 0 1200 2731">
  <path id="Selection #15"
        fill="none" stroke="black" stroke-width="1"
        d="M 540.00,1677.00
           C 541.10,1680.86 544.08,1687.70 546.63,1690.74
             548.89,1693.43 550.37,1693.36 552.47,1697.05
             554.98,1701.45 560.09,1714.47 562.96,1717.47
             566.51,1721.16 574.09,1719.10 579.41,1727.02
             578.07,1725.03 586.16,1740.36 585.27,1738.09
             586.45,1741.10 585.73,1750.57 595.00,1752.53
             599.33,1753.44 604.12,1749.76 605.83,1746.00
             606.89,1743.65 606.26,1739.21 611.02,1737.19
             614.84,1735.57 623.85,1739.13 628.00,1738.40
             631.05,1737.87 634.58,1734.75 636.52,1732.42
             639.08,1729.32 640.55,1722.05 641.71,1718.00
             647.72,1697.08 645.83,1704.55 648.58,1684.00
             649.03,1680.62 650.56,1669.88 649.40,1667.21
             647.88,1663.69 640.51,1661.00 637.00,1660.00
             637.00,1660.00 637.00,1658.00 637.00,1658.00
             637.00,1658.00 649.00,1648.00 649.00,1648.00
             649.00,1648.00 640.46,1637.00 640.46,1637.00
             640.46,1637.00 640.46,1625.00 640.46,1625.00
             640.46,1625.00 632.34,1609.28 632.34,1609.28
             632.34,1609.28 635.01,1600.04 635.01,1600.04
             635.01,1600.04 630.00,1590.00 630.00,1590.00
             630.00,1590.00 608.00,1592.72 608.00,1592.72
             608.00,1592.72 593.00,1594.17 593.00,1594.17
             593.00,1594.17 586.00,1594.92 586.00,1594.92
             579.78,1594.91 575.87,1592.11 567.00,1592.00
             556.67,1591.88 555.07,1590.89 546.00,1596.40
             544.14,1597.53 541.11,1599.16 540.21,1601.21
             538.99,1603.99 541.72,1609.27 542.80,1612.00
             544.41,1616.10 545.98,1621.51 548.49,1625.00
             548.49,1625.00 561.23,1640.00 561.23,1640.00
             564.71,1646.68 556.79,1653.48 555.68,1655.28
             553.74,1658.44 555.60,1660.20 554.50,1663.42
             552.01,1670.76 547.10,1674.85 540.00,1677.00 Z" />
</svg>
