<?xml version="1.0" encoding="UTF-8" standalone="no"?>
<!DOCTYPE svg PUBLIC "-//W3C//DTD SVG 20010904//EN"
              "http://www.w3.org/TR/2001/REC-SVG-20010904/DTD/svg10.dtd">

<svg xmlns="http://www.w3.org/2000/svg"
     width="16.6667in" height="37.9306in"
     viewBox="0 0 1200 2731">
  <path id="Selection #4"
        fill="none" stroke="black" stroke-width="1"
        d="M 809.00,2201.00
           C 809.00,2201.00 802.00,2185.00 802.00,2185.00
             799.09,2186.64 795.80,2188.37 793.85,2191.18
             791.98,2193.89 792.16,2196.97 789.57,2199.30
             786.28,2202.27 779.05,2202.05 775.14,2209.02
             775.14,2209.02 771.54,2220.00 771.54,2220.00
             769.26,2225.83 763.72,2236.00 759.96,2240.96
             755.57,2246.75 742.09,2252.23 743.34,2265.00
             743.34,2265.00 747.39,2282.00 747.39,2282.00
             748.39,2284.46 749.92,2286.37 750.57,2289.00
             751.43,2292.41 750.56,2297.83 749.05,2301.00
             746.79,2306.05 739.79,2312.88 749.05,2315.00
             749.05,2315.00 749.60,2329.83 749.60,2329.83
             749.60,2329.83 755.98,2337.17 755.98,2337.17
             755.98,2337.17 755.98,2348.00 755.98,2348.00
             755.98,2348.00 764.00,2343.00 764.00,2343.00
             767.53,2354.81 760.25,2354.50 757.02,2360.18
             755.97,2362.03 755.86,2365.52 755.10,2368.00
             755.10,2368.00 751.00,2379.00 751.00,2379.00
             760.08,2381.05 770.00,2370.19 772.00,2362.00
             770.76,2361.21 769.90,2360.94 768.89,2359.59
             767.56,2357.33 767.39,2349.47 768.89,2347.17
             770.10,2344.94 774.80,2341.62 777.00,2340.00
             777.00,2340.00 774.00,2338.00 774.00,2338.00
             774.00,2338.00 774.00,2336.00 774.00,2336.00
             778.38,2333.69 784.19,2329.36 787.55,2325.72
             787.55,2325.72 791.26,2321.49 791.26,2321.49
             797.87,2315.84 800.10,2321.17 805.00,2310.00
             803.77,2309.21 802.89,2308.94 802.02,2307.59
             798.38,2301.94 806.07,2291.11 811.02,2288.56
             813.82,2287.10 819.28,2286.06 821.35,2284.19
             823.51,2282.24 823.71,2279.69 824.00,2277.00
             817.01,2275.67 809.02,2269.64 808.44,2262.00
             808.20,2258.78 810.89,2255.17 810.94,2249.01
             810.99,2243.62 808.86,2243.48 808.60,2239.96
             808.60,2239.96 810.39,2230.00 810.39,2230.00
             810.39,2230.00 812.00,2216.00 812.00,2216.00
             817.52,2220.09 818.33,2219.98 825.00,2220.00
             825.00,2220.00 825.00,2208.00 825.00,2208.00
             825.00,2208.00 832.00,2208.00 832.00,2208.00
             830.81,2195.71 839.36,2199.69 842.85,2190.96
             844.87,2185.91 841.91,2182.35 846.35,2178.84
             852.40,2174.06 858.41,2179.10 861.00,2170.95
             852.12,2170.92 847.96,2167.55 843.11,2170.95
             838.03,2174.39 839.24,2180.89 832.98,2183.80
             828.36,2186.23 822.33,2182.14 818.05,2183.80
             813.26,2185.31 811.04,2196.34 809.00,2201.00 Z" />
</svg>
