<?xml version="1.0" encoding="UTF-8" standalone="no"?>
<!DOCTYPE svg PUBLIC "-//W3C//DTD SVG 20010904//EN"
              "http://www.w3.org/TR/2001/REC-SVG-20010904/DTD/svg10.dtd">

<svg xmlns="http://www.w3.org/2000/svg"
     width="16.6667in" height="37.9306in"
     viewBox="0 0 1200 2731">
  <path id="Selection #5"
        fill="none" stroke="black" stroke-width="1"
        d="M 109.04,2250.82
           C 109.04,2250.82 109.04,2260.58 109.04,2260.58
             108.41,2268.10 103.39,2269.28 108.43,2282.00
             109.89,2285.68 110.21,2286.71 114.00,2288.00
             115.08,2284.30 117.87,2271.64 120.92,2269.96
             123.39,2268.60 124.92,2272.22 125.43,2274.01
             127.22,2280.29 124.57,2285.18 123.00,2291.00
             124.36,2291.23 125.34,2291.18 126.58,2292.02
             129.72,2294.14 130.75,2301.46 129.41,2304.79
             128.11,2308.00 123.86,2309.12 125.51,2315.00
             125.51,2315.00 134.93,2331.00 134.93,2331.00
             136.62,2335.20 135.66,2340.94 138.28,2346.96
             140.70,2352.52 144.82,2353.16 146.57,2360.00
             147.77,2365.39 145.79,2368.86 146.57,2372.00
             148.14,2377.25 152.90,2378.36 157.00,2380.73
             160.37,2382.67 168.37,2388.88 170.40,2392.01
             172.67,2395.52 171.68,2399.09 172.32,2403.00
             173.07,2407.57 178.96,2424.52 181.96,2427.29
             185.06,2430.42 189.25,2427.60 192.00,2427.29
             195.47,2426.60 198.29,2428.33 200.28,2431.10
             205.09,2437.82 205.68,2453.39 202.87,2461.00
             200.73,2466.80 195.49,2472.98 198.60,2479.73
             200.01,2482.80 205.01,2483.58 208.00,2484.19
             216.84,2485.99 220.76,2484.77 228.00,2491.00
             233.68,2486.93 237.90,2481.12 244.00,2477.65
             249.06,2474.77 252.76,2476.17 255.14,2471.94
             256.54,2469.44 255.33,2466.68 255.73,2464.00
             256.10,2461.51 257.26,2460.09 257.16,2457.00
             256.98,2451.34 253.76,2446.92 251.83,2442.00
             251.83,2442.00 248.39,2431.00 248.39,2431.00
             245.66,2424.44 243.15,2425.25 243.00,2417.00
             243.00,2417.00 243.00,2410.00 243.00,2410.00
             243.00,2410.00 241.73,2395.00 241.73,2395.00
             242.10,2391.09 244.79,2389.81 243.58,2386.00
             241.64,2379.90 227.69,2363.91 223.67,2352.00
             222.63,2348.94 220.76,2344.17 221.35,2341.00
             221.81,2338.52 223.66,2336.11 225.00,2334.00
             215.27,2328.56 214.50,2327.63 207.60,2319.00
             205.69,2316.60 200.53,2309.15 197.91,2308.44
             194.15,2307.42 186.51,2314.82 183.00,2316.70
             177.22,2319.79 176.14,2315.15 170.00,2315.36
             167.22,2315.52 163.97,2317.24 161.51,2315.36
             159.55,2313.78 158.18,2308.45 157.31,2306.00
             157.31,2306.00 151.93,2293.00 151.93,2293.00
             151.57,2290.39 152.74,2285.95 152.91,2283.00
             153.49,2272.71 148.65,2274.27 147.85,2268.95
             147.85,2268.95 146.61,2256.00 146.61,2256.00
             146.62,2252.69 147.50,2248.86 143.85,2246.81
             140.40,2244.86 137.16,2248.58 131.00,2250.82
             118.61,2254.78 118.93,2251.31 109.04,2250.82 Z" />
</svg>
