<?xml version="1.0" encoding="UTF-8" standalone="no"?>
<!DOCTYPE svg PUBLIC "-//W3C//DTD SVG 20010904//EN"
              "http://www.w3.org/TR/2001/REC-SVG-20010904/DTD/svg10.dtd">

<svg xmlns="http://www.w3.org/2000/svg"
     width="16.6667in" height="37.9306in"
     viewBox="0 0 1200 2731">
  <path id="Selection #17"
        fill="none" stroke="black" stroke-width="1"
        d="M 630.00,1588.00
           C 630.00,1588.00 628.35,1563.00 628.35,1563.00
             629.42,1557.77 637.00,1553.12 636.43,1544.00
             636.05,1538.04 628.58,1534.37 626.01,1527.00
             625.07,1524.28 624.46,1520.47 625.48,1517.72
             626.76,1514.26 630.20,1510.84 629.97,1507.00
             629.75,1503.23 625.17,1497.68 625.84,1493.00
             626.19,1490.59 628.74,1486.39 629.89,1484.00
             632.41,1478.79 636.98,1468.44 638.00,1463.00
             638.00,1463.00 648.78,1467.49 648.78,1467.49
             648.78,1467.49 657.00,1475.00 657.00,1475.00
             657.00,1475.00 660.00,1461.00 660.00,1461.00
             654.06,1458.62 649.65,1457.09 648.27,1450.00
             648.27,1450.00 647.69,1442.00 647.69,1442.00
             646.52,1437.25 642.95,1436.27 642.82,1431.00
             642.53,1419.52 648.43,1413.18 651.44,1405.00
             652.83,1401.24 654.79,1383.62 655.00,1379.00
             655.00,1379.00 643.00,1376.52 643.00,1376.52
             643.00,1376.52 635.00,1376.52 635.00,1376.52
             628.27,1376.15 632.27,1374.03 622.00,1375.00
             622.00,1375.00 605.00,1373.07 605.00,1373.07
             600.78,1372.28 598.16,1368.98 591.00,1367.03
             571.63,1361.76 562.94,1360.97 543.00,1361.00
             543.00,1361.00 531.00,1361.60 531.00,1361.60
             527.51,1361.02 525.92,1358.46 521.00,1356.94
             521.00,1356.94 489.00,1350.21 489.00,1350.21
             489.00,1350.21 475.00,1351.28 475.00,1351.28
             469.05,1352.50 462.95,1360.10 458.28,1362.33
             447.76,1367.36 438.12,1352.56 434.04,1351.49
             430.97,1350.69 428.87,1353.99 427.20,1356.01
             422.79,1361.33 416.60,1366.58 417.17,1374.00
             417.17,1374.00 420.00,1405.00 420.00,1405.00
             419.89,1413.77 414.51,1425.11 415.79,1430.00
             416.51,1432.76 420.64,1438.48 422.42,1441.00
             422.42,1441.00 436.60,1462.00 436.60,1462.00
             436.60,1462.00 454.34,1502.00 454.34,1502.00
             454.34,1502.00 489.56,1553.00 489.56,1553.00
             495.53,1561.81 492.90,1566.17 495.62,1575.00
             498.75,1585.17 502.08,1588.66 511.00,1593.72
             512.93,1594.81 515.98,1596.64 518.00,1597.30
             520.96,1598.27 535.10,1599.66 538.00,1598.76
             538.00,1598.76 553.00,1590.70 553.00,1590.70
             556.03,1589.71 563.51,1589.96 567.00,1590.00
             575.74,1590.11 578.04,1592.32 584.00,1592.81
             584.00,1592.81 630.00,1588.00 630.00,1588.00 Z" />
</svg>
