<?xml version="1.0" encoding="UTF-8" standalone="no"?>
<!DOCTYPE svg PUBLIC "-//W3C//DTD SVG 20010904//EN"
              "http://www.w3.org/TR/2001/REC-SVG-20010904/DTD/svg10.dtd">

<svg xmlns="http://www.w3.org/2000/svg"
     width="16.6667in" height="37.9306in"
     viewBox="0 0 1200 2731">
  <path id="Selection #18"
        fill="none" stroke="black" stroke-width="1"
        d="M 180.00,1227.00
           C 181.20,1231.93 183.43,1252.52 182.48,1257.00
             182.48,1257.00 175.27,1281.00 175.27,1281.00
             175.08,1285.05 178.89,1296.37 180.12,1301.00
             180.12,1301.00 188.58,1332.00 188.58,1332.00
             188.58,1332.00 192.85,1346.87 192.85,1346.87
             194.64,1350.50 198.43,1351.17 202.00,1352.33
             210.10,1354.98 218.40,1358.18 227.00,1358.05
             229.51,1357.93 233.71,1357.09 235.83,1358.05
             238.17,1359.24 241.24,1363.83 242.87,1366.00
             242.87,1366.00 255.04,1383.00 255.04,1383.00
             255.04,1383.00 267.84,1399.00 267.84,1399.00
             270.17,1403.46 269.80,1411.78 273.66,1418.00
             279.41,1427.28 286.76,1431.76 292.74,1444.00
             293.99,1446.56 297.09,1453.45 297.61,1456.00
             299.07,1463.22 295.37,1460.48 301.00,1470.00
             302.90,1469.41 305.05,1468.54 307.00,1468.30
             310.15,1467.90 328.37,1471.59 332.00,1472.75
             332.00,1472.75 341.00,1475.84 341.00,1475.84
             343.18,1476.05 345.77,1476.00 348.00,1475.84
             356.00,1476.01 364.66,1477.10 372.00,1480.56
             372.00,1480.56 380.00,1485.00 380.00,1485.00
             381.62,1482.70 384.50,1479.41 385.41,1477.00
             385.41,1477.00 388.65,1449.00 388.65,1449.00
             389.66,1445.63 392.99,1441.02 395.00,1438.00
             397.12,1434.82 402.07,1425.51 406.04,1425.41
             407.62,1425.37 411.38,1427.29 413.00,1428.00
             415.14,1420.60 417.97,1411.62 418.00,1404.00
             418.00,1404.00 415.17,1374.00 415.17,1374.00
             414.46,1364.82 426.17,1355.61 431.00,1348.00
             423.79,1341.63 424.75,1331.35 418.90,1330.58
             414.41,1329.99 408.96,1337.96 405.99,1341.00
             403.28,1343.77 396.80,1351.34 393.00,1351.44
             390.68,1351.50 388.60,1349.55 384.00,1349.10
             380.53,1348.76 377.33,1349.61 374.29,1347.40
             372.29,1345.95 367.27,1339.31 365.39,1337.00
             361.31,1331.97 350.05,1316.51 347.83,1311.00
             345.89,1306.21 346.03,1292.39 343.40,1289.72
             341.32,1287.61 336.82,1287.24 334.15,1287.00
             334.48,1283.39 335.49,1279.56 334.15,1276.00
             332.55,1270.76 327.92,1267.37 324.00,1263.83
             324.00,1263.83 304.02,1245.91 304.02,1245.91
             298.96,1240.99 299.31,1239.52 298.42,1233.00
             297.99,1229.78 298.42,1225.32 295.57,1223.25
             293.31,1221.60 286.88,1220.41 284.00,1219.92
             284.00,1219.92 262.00,1216.91 262.00,1216.91
             262.00,1216.91 236.00,1215.00 236.00,1215.00
             223.96,1214.94 214.55,1218.24 203.00,1221.13
             203.00,1221.13 180.00,1227.00 180.00,1227.00 Z" />
</svg>
