<?xml version="1.0" encoding="UTF-8" standalone="no"?>
<!DOCTYPE svg PUBLIC "-//W3C//DTD SVG 20010904//EN"
              "http://www.w3.org/TR/2001/REC-SVG-20010904/DTD/svg10.dtd">

<svg xmlns="http://www.w3.org/2000/svg"
     width="16.6667in" height="37.9306in"
     viewBox="0 0 1200 2731">
  <path id="Selection #19"
        fill="none" stroke="black" stroke-width="1"
        d="M 386.00,808.00
           C 386.00,808.00 378.09,819.00 378.09,819.00
             378.09,819.00 360.22,852.00 360.22,852.00
             360.22,852.00 344.74,881.00 344.74,881.00
             344.74,881.00 335.69,898.00 335.69,898.00
             334.49,900.22 331.64,904.48 331.70,906.91
             331.80,910.46 338.33,914.37 341.00,916.37
             344.17,918.75 347.41,921.39 351.00,923.09
             361.69,928.15 367.97,925.91 368.00,941.00
             368.00,941.00 369.00,978.00 369.00,978.00
             369.00,980.68 369.10,983.40 368.37,986.00
             368.37,986.00 351.00,1021.00 351.00,1021.00
             351.00,1021.00 330.00,1013.72 330.00,1013.72
             330.00,1013.72 305.00,1007.37 305.00,1007.37
             305.00,1007.37 284.00,1003.36 284.00,1003.36
             284.00,1003.36 259.00,1010.89 259.00,1010.89
             259.00,1010.89 240.52,1025.17 240.52,1025.17
             240.52,1025.17 223.00,1051.00 223.00,1051.00
             223.00,1051.00 208.56,1072.00 208.56,1072.00
             208.56,1072.00 205.57,1081.00 205.57,1081.00
             205.57,1081.00 193.69,1096.00 193.69,1096.00
             193.69,1096.00 195.89,1119.00 195.89,1119.00
             195.89,1119.00 181.40,1144.00 181.40,1144.00
             181.40,1144.00 175.59,1155.00 175.59,1155.00
             175.59,1155.00 179.33,1170.00 179.33,1170.00
             179.33,1170.00 187.34,1195.00 187.34,1195.00
             187.34,1195.00 191.02,1207.00 191.02,1207.00
             191.02,1207.00 183.00,1224.00 183.00,1224.00
             183.00,1224.00 228.72,1212.93 228.72,1212.93
             228.72,1212.93 263.00,1214.92 263.00,1214.92
             263.00,1214.92 283.00,1217.73 283.00,1217.73
             286.98,1218.32 293.54,1219.39 296.77,1221.84
             303.15,1226.67 297.09,1237.03 305.06,1244.72
             305.06,1244.72 324.00,1261.58 324.00,1261.58
             332.25,1268.72 338.88,1273.41 336.00,1285.00
             338.49,1285.50 342.61,1286.22 344.57,1287.85
             348.36,1291.01 347.86,1304.77 349.49,1310.00
             351.10,1315.15 364.30,1333.22 368.25,1338.00
             370.52,1340.75 373.67,1345.14 377.01,1346.40
             377.01,1346.40 386.00,1347.39 386.00,1347.39
             388.56,1347.93 391.52,1349.73 394.00,1349.19
             397.16,1348.50 401.58,1343.42 403.72,1341.00
             411.62,1332.03 417.14,1330.55 413.00,1318.00
             413.00,1318.00 418.00,1317.00 418.00,1317.00
             417.40,1312.58 414.67,1299.54 415.16,1296.04
             415.91,1290.61 422.55,1290.21 427.00,1290.04
             436.07,1289.68 440.46,1290.69 447.00,1297.00
             447.00,1297.00 459.00,1290.11 459.00,1290.11
             459.00,1290.11 488.00,1285.40 488.00,1285.40
             488.00,1285.40 518.00,1271.00 518.00,1271.00
             518.00,1271.00 532.00,1272.52 532.00,1272.52
             532.00,1272.52 544.00,1269.57 544.00,1269.57
             544.00,1269.57 555.00,1271.00 555.00,1271.00
             557.03,1255.98 562.50,1251.66 571.58,1240.00
             573.89,1237.02 578.06,1230.72 581.09,1229.01
             583.65,1227.56 604.65,1224.58 609.00,1224.00
             604.94,1217.60 597.33,1209.10 592.25,1203.00
             592.25,1203.00 573.83,1181.09 573.83,1181.09
             573.83,1181.09 542.00,1152.58 542.00,1152.58
             539.48,1150.39 535.50,1146.95 534.02,1144.00
             531.28,1138.52 536.13,1128.79 525.00,1130.80
             525.00,1130.80 520.00,1132.00 520.00,1132.00
             520.00,1132.00 519.23,1119.00 519.23,1119.00
             519.23,1119.00 519.23,1108.00 519.23,1108.00
             519.23,1108.00 504.00,1086.00 504.00,1086.00
             514.05,1084.22 510.27,1083.35 520.00,1088.00
             520.00,1088.00 518.78,1063.00 518.78,1063.00
             518.78,1063.00 516.29,1055.00 516.29,1055.00
             516.29,1055.00 519.95,1043.00 519.95,1043.00
             519.95,1043.00 519.95,1028.00 519.95,1028.00
             519.95,1028.00 519.00,1018.00 519.00,1018.00
             519.00,1018.00 518.30,1007.00 518.30,1007.00
             518.30,1007.00 506.33,988.00 506.33,988.00
             506.33,988.00 485.67,957.00 485.67,957.00
             485.67,957.00 475.67,942.00 475.67,942.00
             475.67,942.00 472.52,935.42 472.52,935.42
             472.52,935.42 483.00,923.00 483.00,923.00
             483.00,923.00 473.00,911.00 473.00,911.00
             473.00,911.00 460.00,902.00 460.00,902.00
             460.00,902.00 460.00,900.00 460.00,900.00
             460.00,900.00 465.00,898.00 465.00,898.00
             463.74,892.87 460.42,887.28 455.91,884.35
             452.42,882.08 446.01,880.02 443.60,876.79
             440.48,872.60 443.84,869.47 439.52,863.02
             433.82,854.51 431.20,860.12 425.06,851.98
             420.33,845.72 423.41,844.08 420.44,839.00
             415.33,830.26 412.34,830.50 406.00,824.90
             400.53,820.06 391.90,811.17 386.00,808.00 Z
           M 350.00,1151.00
           C 358.42,1153.80 367.02,1155.90 375.00,1159.90
             379.99,1162.40 381.92,1165.42 385.00,1166.66
             387.69,1167.74 398.01,1166.13 401.00,1175.00
             401.00,1175.00 397.00,1174.44 397.00,1174.44
             395.56,1174.30 393.02,1174.05 392.03,1175.43
             390.04,1178.23 399.10,1183.47 401.00,1185.00
             395.00,1188.32 388.51,1188.64 389.17,1197.00
             389.17,1197.00 394.32,1236.00 394.32,1236.00
             393.95,1239.35 391.37,1247.79 390.00,1251.00
             387.98,1250.24 386.11,1249.61 384.48,1248.08
             381.81,1245.58 378.87,1234.84 378.00,1231.00
             378.00,1231.00 384.00,1230.00 384.00,1230.00
             384.00,1214.34 383.93,1218.65 380.01,1204.00
             378.83,1199.59 378.99,1195.86 375.72,1192.29
             367.37,1183.15 361.16,1187.75 352.00,1175.00
             352.00,1175.00 360.00,1175.00 360.00,1175.00
             358.04,1168.13 349.26,1156.48 350.00,1151.00 Z" />
</svg>
