<?xml version="1.0" encoding="UTF-8" standalone="no"?>
<!DOCTYPE svg PUBLIC "-//W3C//DTD SVG 20010904//EN"
              "http://www.w3.org/TR/2001/REC-SVG-20010904/DTD/svg10.dtd">

<svg xmlns="http://www.w3.org/2000/svg"
     width="16.6667in" height="37.9306in"
     viewBox="0 0 1200 2731">
  <path id="Selection #24"
        fill="none" stroke="black" stroke-width="1"
        d="M 805.00,48.00
           C 807.86,56.97 816.17,62.88 818.99,71.00
             818.99,71.00 821.82,88.00 821.82,88.00
             822.21,93.44 817.55,113.17 814.95,118.00
             814.95,118.00 800.00,140.00 800.00,140.00
             800.00,140.00 820.00,149.00 820.00,149.00
             820.00,149.00 803.58,170.00 803.58,170.00
             801.71,172.38 799.17,176.26 795.96,176.64
             793.43,176.95 781.36,172.12 778.00,171.00
             778.00,171.00 732.00,155.52 732.00,155.52
             723.81,153.79 708.95,159.28 704.00,158.12
             699.21,157.00 693.25,148.96 689.00,147.64
             685.89,146.68 682.72,148.43 680.00,149.76
             677.68,150.89 671.33,153.72 669.99,155.63
             668.27,158.10 668.96,173.18 669.00,177.00
             669.00,177.00 673.75,208.00 673.75,208.00
             674.31,211.35 675.71,217.90 675.23,221.00
             673.90,229.50 661.03,253.55 660.00,265.00
             660.00,265.00 642.00,252.91 642.00,252.91
             642.00,252.91 613.00,238.00 613.00,238.00
             606.13,253.95 598.26,256.11 585.00,266.42
             582.26,268.55 575.32,273.64 573.58,276.09
             571.41,279.16 570.07,287.97 569.12,292.00
             566.46,303.22 562.18,326.81 557.74,336.00
             556.32,338.96 553.09,346.30 550.61,348.02
             547.66,350.07 539.21,350.17 536.48,352.16
             534.46,353.64 532.52,359.53 531.70,362.00
             529.32,369.20 532.33,371.84 535.85,378.00
             535.85,378.00 549.48,402.00 549.48,402.00
             554.81,413.14 552.26,424.36 550.72,436.00
             550.43,438.20 549.96,442.11 548.98,444.00
             546.93,447.96 535.07,457.00 531.00,461.01
             521.32,470.57 520.05,474.40 514.25,486.00
             514.25,486.00 493.21,526.00 493.21,526.00
             493.21,526.00 476.10,547.00 476.10,547.00
             474.88,550.02 476.39,553.94 477.12,557.00
             478.25,561.78 482.34,579.04 481.23,582.99
             480.10,587.05 470.57,593.19 467.00,596.00
             463.07,599.09 449.61,609.87 446.00,611.32
             440.99,613.32 434.34,612.99 429.00,613.00
             429.00,613.00 408.00,614.00 408.00,614.00
             408.00,614.00 412.16,650.00 412.16,650.00
             412.16,650.00 414.59,674.00 414.59,674.00
             414.59,674.00 407.32,698.00 407.32,698.00
             407.32,698.00 403.00,746.00 403.00,746.00
             403.00,746.00 402.00,761.00 402.00,761.00
             401.97,764.08 402.36,768.24 400.98,771.00
             399.27,774.42 394.79,777.64 392.58,781.00
             390.54,784.11 387.44,801.59 388.61,805.00
             389.89,808.72 395.04,812.85 398.00,815.42
             398.00,815.42 406.00,822.70 406.00,822.70
             411.66,827.47 412.92,826.48 418.12,833.00
             419.72,835.02 422.76,838.69 423.57,841.00
             424.64,844.07 423.22,846.30 426.48,850.95
             430.81,857.11 433.11,853.16 438.68,859.11
             440.84,861.43 443.08,864.86 443.73,868.00
             444.25,870.53 443.71,873.32 445.17,875.61
             447.14,878.69 454.57,881.04 457.91,883.63
             460.43,885.60 466.84,893.62 466.28,896.89
             466.00,898.55 465.02,899.00 464.00,900.00
             464.00,900.00 464.00,902.00 464.00,902.00
             464.00,902.00 470.00,909.00 470.00,909.00
             470.00,909.00 476.00,908.00 476.00,908.00
             476.16,912.64 476.32,914.17 480.06,917.37
             486.65,923.01 490.91,920.98 498.00,918.00
             498.00,918.00 502.54,933.00 502.54,933.00
             502.54,933.00 504.60,942.48 504.60,942.48
             504.60,942.48 524.98,958.09 524.98,958.09
             524.98,958.09 526.00,969.81 526.00,969.81
             529.01,969.97 536.87,968.87 538.83,969.81
             542.19,970.89 549.29,979.96 552.08,983.00
             552.08,983.00 580.84,1015.00 580.84,1015.00
             584.66,1019.29 590.81,1027.09 596.00,1029.30
             596.00,1029.30 611.00,1032.40 611.00,1032.40
             611.00,1032.40 644.00,1038.25 644.00,1038.25
             648.09,1038.92 664.03,1041.70 667.00,1041.22
             669.67,1040.80 677.09,1037.40 680.00,1036.15
             680.00,1036.15 705.00,1025.42 705.00,1025.42
             705.00,1025.42 765.00,999.31 765.00,999.31
             765.00,999.31 785.00,990.00 785.00,990.00
             785.00,990.00 783.20,984.00 783.20,984.00
             783.20,984.00 782.00,974.00 782.00,974.00
             782.00,974.00 775.00,976.00 775.00,976.00
             775.00,976.00 769.00,947.00 769.00,947.00
             768.08,942.39 766.19,936.39 767.42,931.83
             767.42,931.83 775.95,907.00 775.95,907.00
             775.95,907.00 783.33,885.00 783.33,885.00
             784.54,881.41 789.34,870.32 788.33,867.30
             787.47,864.68 779.48,858.97 777.00,857.00
             770.03,851.47 750.43,835.39 744.00,832.00
             744.00,832.00 792.00,798.33 792.00,798.33
             792.00,798.33 812.37,784.67 812.37,784.67
             812.37,784.67 820.86,769.00 820.86,769.00
             820.86,769.00 830.00,746.00 830.00,746.00
             830.00,746.00 811.00,735.00 811.00,735.00
             813.12,729.20 813.15,720.24 819.04,717.54
             824.26,715.15 837.20,720.46 842.00,719.60
             845.19,719.02 847.72,716.24 849.98,714.08
             851.49,712.65 853.65,710.82 854.36,708.83
             855.30,706.21 853.04,698.05 852.35,695.00
             852.35,695.00 844.99,660.00 844.99,660.00
             845.17,652.40 856.13,635.97 860.19,629.00
             860.19,629.00 880.05,580.00 880.05,580.00
             881.59,575.89 886.82,561.02 889.42,558.70
             891.47,556.86 905.12,551.48 908.00,551.12
             909.66,550.92 910.47,551.06 912.00,551.75
             917.39,554.18 926.65,564.32 932.00,564.39
             936.99,564.45 942.72,558.26 946.00,555.00
             950.73,550.30 954.93,545.29 961.00,542.32
             967.54,539.13 983.41,533.48 987.15,527.54
             988.66,524.81 987.64,520.97 987.15,518.00
             986.49,511.32 988.03,504.16 984.58,498.00
             982.34,493.99 977.37,489.81 976.40,486.00
             975.64,483.01 977.85,476.26 978.58,473.00
             978.58,473.00 983.92,448.00 983.92,448.00
             984.41,445.08 985.52,439.76 985.08,437.00
             984.69,434.56 980.85,426.91 979.58,424.00
             979.58,424.00 963.75,391.00 963.75,391.00
             961.85,387.18 956.01,375.72 956.15,372.00
             956.25,369.07 959.42,361.09 960.58,358.00
             960.58,358.00 967.00,339.00 967.00,339.00
             967.00,339.00 981.80,298.00 981.80,298.00
             981.80,298.00 988.08,282.00 988.08,282.00
             992.39,274.59 1006.63,264.94 1011.35,258.83
             1013.86,255.60 1018.48,242.64 1020.42,238.00
             1020.42,238.00 1037.00,196.00 1037.00,196.00
             1032.29,197.26 1030.53,195.92 1029.39,191.00
             1028.56,187.41 1029.56,182.26 1028.26,179.17
             1027.27,176.80 1025.03,175.13 1023.54,172.96
             1021.65,170.19 1021.62,167.42 1018.75,165.36
             1018.75,165.36 1006.15,159.65 1006.15,159.65
             1001.94,156.72 1004.58,155.41 1000.00,152.00
             1000.00,152.00 999.00,155.00 999.00,155.00
             999.00,155.00 988.00,147.00 988.00,147.00
             976.36,147.85 976.04,138.92 967.00,146.00
             967.00,146.00 964.00,140.00 964.00,140.00
             957.98,141.08 947.13,142.68 943.09,136.78
             940.39,132.85 942.29,129.59 937.85,126.10
             930.79,120.55 927.03,121.93 919.00,122.00
             918.99,120.14 919.14,116.96 918.43,115.30
             915.52,108.49 904.02,108.51 899.31,103.61
             895.73,99.88 897.57,94.14 894.44,91.87
             892.26,90.29 889.95,91.95 888.00,93.00
             884.69,83.97 877.21,75.59 869.00,70.58
             864.66,67.94 857.27,68.80 855.66,62.28
             855.15,60.25 858.02,56.01 859.00,54.00
             852.10,50.21 852.36,47.03 847.00,45.15
             833.08,40.27 818.98,47.36 805.00,48.00 Z
           M 673.00,631.00
           C 674.22,634.67 676.06,639.13 675.78,643.00
             675.51,646.71 673.46,649.73 674.43,652.42
             675.09,654.30 687.73,669.48 689.92,671.98
             697.47,680.60 698.75,672.83 706.87,678.48
             712.19,682.18 707.89,684.97 710.47,689.96
             714.67,698.09 720.84,694.33 721.00,707.00
             721.00,707.00 695.00,699.16 695.00,699.16
             695.00,699.16 688.00,700.00 688.00,700.00
             681.85,681.54 681.21,675.62 668.00,660.00
             668.00,660.00 666.00,669.00 666.00,669.00
             666.00,669.00 657.00,669.00 657.00,669.00
             657.00,669.00 655.46,656.00 655.46,656.00
             655.46,656.00 657.35,646.00 657.35,646.00
             657.35,646.00 648.00,630.00 648.00,630.00
             648.00,630.00 663.00,623.00 663.00,623.00
             663.00,623.00 646.00,605.39 646.00,605.39
             641.35,601.74 636.03,601.20 633.99,598.36
             632.61,596.45 633.17,593.74 631.43,590.00
             630.13,587.20 624.10,579.39 621.83,577.21
             611.27,567.08 598.88,569.36 604.00,557.00
             608.88,558.38 618.99,562.66 622.96,565.63
             626.32,568.15 630.35,573.65 633.29,577.00
             633.29,577.00 648.58,592.79 648.58,592.79
             653.57,597.66 659.36,598.51 662.30,601.63
             665.04,604.54 664.99,608.99 669.22,613.99
             670.40,615.40 672.77,617.93 674.58,618.43
             676.32,618.90 683.61,615.26 685.70,622.02
             687.70,628.46 676.98,629.85 673.00,631.00 Z" />
</svg>
