<?xml version="1.0" encoding="UTF-8" standalone="no"?>
<!DOCTYPE svg PUBLIC "-//W3C//DTD SVG 20010904//EN"
              "http://www.w3.org/TR/2001/REC-SVG-20010904/DTD/svg10.dtd">

<svg xmlns="http://www.w3.org/2000/svg"
     width="16.6667in" height="37.9306in"
     viewBox="0 0 1200 2731">
  <path id="Selection #20"
        fill="none" stroke="black" stroke-width="1"
        d="M 557.00,1274.00
           C 553.45,1273.19 548.38,1271.10 545.00,1271.42
             540.68,1271.83 537.58,1274.77 533.00,1274.72
             527.84,1274.67 523.33,1271.39 518.00,1273.00
             518.00,1273.00 489.00,1287.05 489.00,1287.05
             480.01,1290.39 469.25,1289.55 460.00,1291.85
             454.00,1293.34 451.79,1296.72 449.00,1297.39
             445.14,1298.31 443.90,1294.70 439.00,1293.14
             431.63,1291.13 425.32,1292.41 418.00,1293.14
             418.00,1302.53 417.94,1309.71 421.00,1319.00
             421.00,1319.00 416.00,1320.00 416.00,1320.00
             418.29,1331.86 420.74,1325.55 425.10,1334.02
             425.10,1334.02 429.07,1342.96 429.07,1342.96
             430.63,1345.47 443.50,1357.66 446.00,1359.02
             447.99,1360.10 451.73,1360.88 454.00,1360.86
             461.47,1360.77 466.43,1352.18 473.00,1349.73
             474.95,1349.01 476.97,1349.06 479.00,1348.84
             493.67,1347.24 497.96,1349.95 512.00,1352.80
             519.13,1354.25 524.08,1354.25 529.00,1360.00
             536.36,1358.68 539.71,1359.00 547.00,1359.00
             568.84,1359.00 567.96,1359.51 589.00,1364.43
             598.89,1366.74 599.39,1371.07 609.00,1371.17
             614.43,1371.22 616.50,1372.93 620.00,1373.06
             620.00,1373.06 627.00,1372.36 627.00,1372.36
             627.00,1372.36 634.00,1374.39 634.00,1374.39
             637.60,1375.10 639.23,1373.96 643.00,1374.39
             643.00,1374.39 656.00,1377.00 656.00,1377.00
             656.87,1374.52 657.81,1371.37 659.65,1369.43
             663.89,1364.92 666.58,1369.05 669.00,1359.00
             665.64,1358.02 658.88,1356.56 656.38,1354.44
             654.85,1353.14 653.41,1350.71 652.32,1349.00
             647.71,1341.71 647.18,1335.58 657.00,1333.00
             656.60,1329.94 655.85,1321.81 654.10,1319.65
             651.87,1316.91 646.08,1316.50 645.88,1312.06
             645.72,1308.36 651.77,1305.94 654.61,1307.78
             657.39,1309.58 659.01,1316.01 661.63,1318.42
             663.75,1320.35 670.07,1321.41 673.00,1322.00
             672.24,1319.34 671.23,1316.75 672.17,1314.00
             673.00,1311.59 675.37,1309.81 674.67,1307.00
             674.13,1304.87 671.31,1302.58 670.02,1300.00
             668.79,1297.54 669.22,1294.60 667.40,1292.41
             664.86,1289.37 663.07,1291.29 657.37,1283.98
             657.37,1283.98 650.06,1274.00 650.06,1274.00
             648.22,1270.80 648.25,1269.45 645.61,1266.00
             645.61,1266.00 624.16,1242.00 624.16,1242.00
             621.63,1239.09 613.89,1228.37 611.54,1227.01
             608.77,1225.41 599.45,1227.53 596.00,1228.00
             592.87,1228.43 583.62,1229.59 581.30,1231.01
             578.77,1232.55 574.12,1239.34 572.13,1242.00
             563.38,1253.67 557.34,1258.62 557.00,1274.00 Z" />
</svg>
