<?xml version="1.0" encoding="UTF-8" standalone="no"?>
<!DOCTYPE svg PUBLIC "-//W3C//DTD SVG 20010904//EN"
              "http://www.w3.org/TR/2001/REC-SVG-20010904/DTD/svg10.dtd">

<svg xmlns="http://www.w3.org/2000/svg"
     width="16.6667in" height="37.9306in"
     viewBox="0 0 1200 2731">
  <path id="Selection #11"
        fill="none" stroke="black" stroke-width="1"
        d="M 408.00,1923.00
           C 403.87,1923.19 387.28,1925.83 384.39,1927.93
             381.71,1929.88 378.00,1938.65 376.14,1942.00
             376.14,1942.00 356.00,1981.00 356.00,1981.00
             356.00,1981.00 373.00,1976.00 373.00,1976.00
             373.00,1976.00 388.67,2015.00 388.67,2015.00
             388.67,2015.00 392.71,2022.00 392.71,2022.00
             392.71,2022.00 398.00,2039.00 398.00,2039.00
             410.30,2034.45 406.66,2029.51 412.63,2022.18
             414.86,2019.45 417.97,2017.70 421.00,2016.00
             421.00,2016.00 421.00,2026.00 421.00,2026.00
             421.00,2026.00 424.00,2025.00 424.00,2025.00
             424.00,2031.65 424.40,2032.60 422.00,2039.00
             431.52,2034.51 427.22,2029.09 435.68,2019.06
             439.78,2014.19 441.34,2015.93 444.71,2013.41
             446.92,2011.75 448.48,2009.25 450.00,2007.00
             450.00,2007.00 458.00,2011.72 458.00,2011.72
             458.00,2011.72 467.00,2013.00 467.00,2013.00
             467.85,2011.17 468.51,2009.17 470.30,2008.02
             472.25,2006.77 474.92,2007.23 476.84,2006.43
             481.85,2004.06 480.07,1999.16 476.84,1996.00
             479.01,1993.82 484.89,1987.46 485.88,1985.00
             486.70,1982.45 485.45,1980.83 485.88,1977.00
             487.28,1967.78 491.56,1961.80 501.00,1961.00
             501.00,1961.00 501.00,1957.00 501.00,1957.00
             494.91,1956.20 488.68,1956.06 486.50,1949.00
             485.23,1944.91 490.42,1939.64 482.83,1934.64
             478.76,1931.96 474.20,1935.60 470.00,1936.03
             466.46,1936.39 457.01,1932.64 454.93,1929.73
             453.74,1928.06 453.42,1925.95 453.00,1924.00
             453.00,1924.00 467.00,1924.78 467.00,1924.78
             467.00,1924.78 483.00,1921.04 483.00,1921.04
             483.00,1921.04 496.00,1922.00 496.00,1922.00
             495.47,1918.64 493.40,1910.95 491.01,1908.59
             489.23,1906.83 487.23,1907.52 485.00,1906.72
             482.36,1905.77 481.15,1904.07 478.00,1903.31
             478.00,1903.31 457.00,1901.89 457.00,1901.89
             450.94,1901.22 447.97,1897.21 444.00,1897.05
             441.17,1896.94 437.50,1899.61 435.00,1901.00
             434.74,1899.14 432.94,1888.65 429.01,1893.61
             427.68,1895.30 428.21,1898.76 427.70,1901.00
             426.94,1904.34 424.01,1908.38 420.96,1909.98
             415.62,1912.77 407.47,1908.53 404.81,1912.44
             403.01,1915.10 406.76,1920.41 408.00,1923.00 Z" />
</svg>
