<?xml version="1.0" encoding="UTF-8" standalone="no"?>
<!DOCTYPE svg PUBLIC "-//W3C//DTD SVG 20010904//EN"
              "http://www.w3.org/TR/2001/REC-SVG-20010904/DTD/svg10.dtd">

<svg xmlns="http://www.w3.org/2000/svg"
     width="16.6667in" height="37.9306in"
     viewBox="0 0 1200 2731">
  <path id="Selection #23"
        fill="none" stroke="black" stroke-width="1"
        d="M 1040.00,196.00
           C 1040.00,196.00 1021.60,240.00 1021.60,240.00
             1021.60,240.00 1014.01,258.00 1014.01,258.00
             1010.09,264.20 995.05,274.48 990.70,281.00
             988.69,284.01 985.03,294.88 983.40,299.00
             983.40,299.00 967.00,345.00 967.00,345.00
             967.00,345.00 958.29,372.00 958.29,372.00
             958.19,376.29 964.12,387.74 966.25,392.00
             966.25,392.00 978.25,417.00 978.25,417.00
             978.25,417.00 986.87,436.00 986.87,436.00
             987.73,439.40 986.67,444.52 986.08,448.00
             986.08,448.00 980.35,474.00 980.35,474.00
             979.70,476.83 977.98,482.34 978.39,485.00
             979.08,489.55 984.91,494.50 987.15,499.00
             989.80,504.31 988.64,509.41 989.29,515.00
             989.50,518.52 990.71,523.57 989.29,526.96
             987.31,532.38 977.08,536.98 972.00,539.31
             956.67,546.33 958.37,544.64 946.00,557.00
             942.41,560.58 937.51,566.56 932.00,566.47
             926.33,566.38 917.52,556.60 912.00,553.95
             907.62,551.85 894.98,556.83 891.27,559.81
             888.80,561.81 887.93,565.14 886.80,568.00
             886.80,568.00 880.19,585.00 880.19,585.00
             880.19,585.00 863.34,627.00 863.34,627.00
             858.93,635.02 847.45,651.37 847.13,660.00
             847.13,660.00 854.58,696.00 854.58,696.00
             854.58,696.00 856.68,707.00 856.68,707.00
             856.52,710.45 854.36,712.59 851.98,714.83
             849.65,717.03 845.15,721.05 842.00,721.60
             833.19,723.14 818.73,712.17 815.43,726.00
             815.43,726.00 814.58,730.98 814.58,730.98
             814.57,735.72 819.48,737.74 823.00,739.95
             834.61,747.22 838.09,747.60 850.00,752.72
             850.00,752.72 883.00,766.01 883.00,766.01
             883.00,766.01 905.00,774.64 905.00,774.64
             905.00,774.64 933.00,777.93 933.00,777.93
             933.00,777.93 946.87,779.60 946.87,779.60
             950.47,781.13 949.98,784.30 953.27,787.47
             956.10,790.19 963.25,793.39 967.00,795.00
             968.11,790.88 970.53,786.16 970.38,782.00
             970.23,777.76 966.95,769.14 967.77,766.00
             968.71,762.43 972.45,760.68 973.34,757.84
             975.81,749.98 956.06,746.72 957.40,739.97
             958.04,736.76 961.33,734.86 964.01,733.59
             966.89,732.25 970.84,730.45 974.00,730.27
             978.05,730.04 982.02,732.25 988.00,729.64
             995.12,726.52 998.71,720.41 992.94,714.00
             992.94,714.00 986.00,707.00 986.00,707.00
             986.00,707.00 1001.00,706.00 1001.00,706.00
             1001.00,706.00 1008.00,704.26 1008.00,704.26
             1008.00,704.26 1008.00,698.00 1008.00,698.00
             1019.60,693.37 1017.00,698.75 1026.00,697.00
             1026.00,697.00 1022.09,688.00 1022.09,688.00
             1018.70,678.72 1017.06,666.83 1016.32,657.00
             1016.12,654.35 1017.08,646.47 1018.03,644.04
             1022.59,632.41 1034.25,640.15 1035.00,653.00
             1035.00,653.00 1042.99,654.02 1042.99,654.02
             1042.99,654.02 1055.00,663.00 1055.00,663.00
             1054.07,654.98 1051.34,655.77 1047.58,650.00
             1045.86,647.35 1043.28,637.03 1044.46,633.95
             1046.08,630.06 1050.23,631.65 1052.73,633.95
             1056.81,637.30 1057.03,643.92 1060.64,647.30
             1062.67,649.21 1068.16,650.75 1071.00,652.05
             1074.96,653.87 1078.33,656.68 1082.00,659.00
             1082.00,659.00 1084.77,648.00 1084.77,648.00
             1084.77,648.00 1088.00,639.00 1088.00,639.00
             1088.00,639.00 1106.00,645.00 1106.00,645.00
             1106.00,645.00 1109.00,636.00 1109.00,636.00
             1115.28,638.70 1123.10,643.81 1124.00,633.00
             1134.70,633.14 1132.81,636.69 1139.00,637.69
             1142.43,638.24 1155.58,634.83 1160.00,634.00
             1158.75,627.08 1153.20,615.95 1150.28,609.00
             1150.28,609.00 1145.02,594.00 1145.02,594.00
             1140.50,584.70 1136.36,581.77 1136.00,570.00
             1131.57,569.78 1123.72,568.15 1120.27,565.30
             1117.15,562.73 1109.73,545.27 1109.22,541.00
             1109.22,541.00 1110.56,526.00 1110.56,526.00
             1110.14,522.01 1106.87,519.30 1106.56,516.01
             1106.20,512.16 1109.46,510.97 1111.02,508.49
             1111.02,508.49 1113.00,503.25 1113.00,503.25
             1113.00,503.25 1116.00,499.55 1116.00,499.55
             1116.00,499.55 1120.17,489.00 1120.17,489.00
             1121.79,484.51 1120.49,481.37 1120.17,477.00
             1120.17,477.00 1120.79,467.00 1120.79,467.00
             1120.79,467.00 1119.15,453.00 1119.15,453.00
             1119.62,446.15 1124.72,447.93 1124.52,442.94
             1124.26,436.88 1117.66,431.68 1114.73,427.00
             1112.78,423.88 1113.07,421.66 1111.72,419.37
             1111.72,419.37 1107.96,414.84 1107.96,414.84
             1107.96,414.84 1106.06,411.68 1106.06,411.68
             1104.03,409.28 1099.55,407.90 1095.50,401.00
             1093.16,397.03 1093.80,394.18 1091.74,390.00
             1091.74,390.00 1084.36,378.42 1084.36,378.42
             1083.72,376.32 1084.71,374.70 1084.36,372.00
             1084.05,368.31 1081.46,363.97 1084.36,359.27
             1086.11,356.32 1089.35,356.14 1091.57,354.19
             1094.16,351.92 1094.55,348.20 1095.00,345.00
             1085.97,336.41 1096.81,332.53 1088.00,325.00
             1088.00,325.00 1087.00,328.00 1087.00,328.00
             1081.73,325.89 1077.65,322.58 1073.00,327.00
             1073.00,327.00 1065.66,318.96 1065.66,318.96
             1065.66,318.96 1067.57,311.00 1067.57,311.00
             1067.57,311.00 1066.00,303.00 1066.00,303.00
             1066.00,303.00 1070.17,303.00 1070.17,303.00
             1070.16,299.61 1071.19,295.08 1070.17,292.00
             1068.39,284.95 1064.15,285.43 1063.85,275.00
             1063.85,275.00 1063.85,263.00 1063.85,263.00
             1063.85,263.00 1061.87,253.58 1061.87,253.58
             1061.80,250.45 1062.71,243.77 1064.59,241.33
             1067.17,237.98 1071.02,238.08 1070.51,232.96
             1069.91,227.05 1067.08,227.65 1064.41,225.28
             1060.28,221.62 1063.14,219.57 1056.00,219.00
             1054.42,212.14 1052.32,215.56 1049.07,210.86
             1045.42,205.58 1047.23,201.80 1040.00,196.00 Z" />
</svg>
