<?xml version="1.0" encoding="UTF-8" standalone="no"?>
<!DOCTYPE svg PUBLIC "-//W3C//DTD SVG 20010904//EN"
              "http://www.w3.org/TR/2001/REC-SVG-20010904/DTD/svg10.dtd">

<svg xmlns="http://www.w3.org/2000/svg"
     width="16.6667in" height="37.9306in"
     viewBox="0 0 1200 2731">
  <path id="Selection #2"
        fill="none" stroke="black" stroke-width="1"
        d="M 602.00,2388.00
           C 599.05,2388.03 595.75,2387.82 593.27,2389.74
             590.52,2391.87 589.48,2396.78 588.31,2400.00
             588.31,2400.00 580.80,2417.00 580.80,2417.00
             580.80,2417.00 575.78,2430.00 575.78,2430.00
             575.78,2430.00 573.75,2439.00 573.75,2439.00
             570.63,2448.17 568.02,2445.07 568.11,2458.00
             568.11,2458.00 568.11,2472.00 568.11,2472.00
             568.84,2475.78 570.48,2477.20 570.86,2481.00
             570.86,2481.00 570.00,2501.00 570.00,2501.00
             570.05,2510.74 571.90,2508.08 572.00,2518.00
             578.37,2513.08 578.38,2508.18 581.20,2501.00
             582.30,2498.19 585.18,2491.57 585.70,2489.00
             586.14,2485.51 584.90,2483.95 585.70,2480.00
             585.70,2480.00 590.62,2466.00 590.62,2466.00
             590.62,2466.00 593.59,2451.00 593.59,2451.00
             594.72,2447.88 596.79,2446.55 597.69,2443.00
             597.69,2443.00 599.26,2432.00 599.26,2432.00
             599.26,2432.00 606.48,2405.02 606.48,2405.02
             608.89,2398.69 612.24,2400.80 614.20,2394.96
             614.20,2394.96 617.11,2381.00 617.11,2381.00
             617.11,2381.00 617.11,2372.00 617.11,2372.00
             619.16,2364.55 624.52,2367.06 620.00,2357.00
             627.14,2356.43 625.41,2353.60 628.54,2345.00
             630.81,2338.78 635.72,2332.57 635.98,2326.00
             636.34,2316.92 632.18,2311.58 642.00,2306.00
             642.00,2306.00 641.00,2300.00 641.00,2300.00
             641.00,2300.00 637.00,2299.00 637.00,2299.00
             625.00,2304.81 628.73,2312.44 625.78,2321.99
             624.76,2325.27 623.31,2326.16 622.56,2328.28
             622.56,2328.28 621.38,2338.00 621.38,2338.00
             619.95,2344.02 615.92,2353.29 613.21,2359.00
             613.21,2359.00 608.08,2367.00 608.08,2367.00
             605.45,2371.67 602.46,2382.58 602.00,2388.00 Z" />
</svg>
