<?xml version="1.0" encoding="UTF-8" standalone="no"?>
<!DOCTYPE svg PUBLIC "-//W3C//DTD SVG 20010904//EN"
              "http://www.w3.org/TR/2001/REC-SVG-20010904/DTD/svg10.dtd">

<svg xmlns="http://www.w3.org/2000/svg"
     width="16.6667in" height="37.9306in"
     viewBox="0 0 1200 2731">
  <path id="Selection #8"
        fill="none" stroke="black" stroke-width="1"
        d="M 505.00,1979.00
           C 505.00,1979.00 500.00,1990.00 500.00,1990.00
             497.97,1989.05 494.11,1987.24 492.00,1986.84
             486.40,1985.77 480.71,1992.74 481.41,1998.00
             482.66,2007.42 478.59,2009.59 470.00,2009.00
             470.00,2009.00 467.00,2019.00 467.00,2019.00
             467.00,2019.00 464.00,2013.00 464.00,2013.00
             457.21,2015.15 456.32,2012.82 450.00,2010.00
             442.88,2019.29 442.19,2015.05 437.82,2019.29
             432.69,2024.27 430.68,2033.39 429.07,2035.90
             426.61,2039.72 422.89,2040.06 421.02,2043.21
             419.84,2045.20 419.85,2049.39 419.14,2052.00
             417.47,2058.14 412.82,2059.93 414.82,2063.89
             416.16,2066.53 425.96,2070.74 429.00,2072.00
             427.00,2073.71 423.46,2076.36 421.99,2078.32
             419.52,2081.63 419.29,2085.58 414.96,2087.87
             409.78,2090.75 406.87,2084.85 403.99,2087.87
             402.87,2088.94 403.23,2091.13 401.40,2093.57
             399.16,2096.56 394.25,2099.25 391.85,2103.04
             388.50,2108.32 389.06,2113.47 388.23,2119.00
             388.23,2119.00 384.58,2133.00 384.58,2133.00
             384.58,2133.00 380.66,2147.00 380.66,2147.00
             380.11,2148.81 378.98,2151.76 379.67,2153.61
             380.75,2156.54 384.43,2156.60 387.00,2156.38
             392.92,2155.87 397.74,2152.93 400.00,2160.00
             408.81,2159.28 413.34,2159.28 416.00,2150.00
             425.42,2152.81 424.20,2158.53 426.72,2167.00
             427.47,2169.50 429.11,2173.49 428.76,2176.00
             428.31,2179.24 424.49,2183.24 423.78,2188.00
             422.73,2195.02 429.15,2200.09 430.75,2204.00
             431.77,2206.48 431.20,2209.10 431.71,2212.00
             431.71,2212.00 435.23,2224.00 435.23,2224.00
             436.06,2226.20 437.11,2229.37 439.39,2230.30
             441.87,2231.58 446.32,2230.37 449.00,2230.30
             453.66,2229.85 460.46,2231.69 465.00,2233.00
             466.15,2224.51 466.59,2220.56 476.00,2221.00
             477.91,2213.65 479.80,2214.63 481.72,2210.00
             482.66,2207.71 482.02,2205.85 484.33,2204.14
             488.76,2200.85 499.87,2202.62 503.26,2206.51
             504.54,2207.97 504.61,2209.23 505.00,2211.00
             505.00,2211.00 512.00,2208.87 512.00,2208.87
             512.00,2208.87 518.00,2209.58 518.00,2209.58
             518.00,2209.58 531.00,2202.00 531.00,2202.00
             529.17,2192.92 524.70,2188.23 531.00,2182.00
             527.66,2176.20 522.53,2172.11 523.79,2165.00
             524.05,2163.51 524.44,2161.70 525.59,2160.61
             528.76,2157.62 532.62,2161.79 535.15,2156.85
             535.15,2156.85 540.93,2137.35 540.93,2137.35
             543.60,2134.07 547.59,2137.00 551.00,2136.51
             556.15,2135.79 556.05,2131.34 564.00,2131.02
             566.53,2130.92 569.62,2130.94 572.00,2131.84
             577.59,2133.96 588.89,2144.92 603.00,2151.00
             604.20,2148.41 606.42,2143.79 606.54,2141.00
             606.88,2133.54 597.25,2129.03 593.00,2124.00
             593.00,2124.00 602.00,2122.58 602.00,2122.58
             603.72,2122.20 607.34,2121.40 608.78,2120.57
             612.94,2118.19 613.63,2113.12 609.85,2109.94
             605.42,2106.21 601.95,2107.58 599.11,2106.40
             595.95,2105.09 595.68,2102.62 593.51,2100.70
             588.77,2096.51 586.32,2100.79 581.00,2090.00
             589.20,2092.02 600.35,2094.65 607.62,2089.01
             609.92,2087.22 613.02,2081.71 615.00,2079.00
             608.51,2069.93 594.81,2059.83 584.00,2056.63
             579.51,2055.30 572.72,2055.00 568.00,2055.00
             568.00,2055.00 566.00,2064.00 566.00,2064.00
             564.54,2062.44 561.79,2059.05 559.83,2058.40
             556.65,2057.34 549.82,2062.25 548.33,2055.89
             547.97,2054.36 548.28,2052.44 549.02,2051.06
             552.25,2045.09 562.07,2048.00 568.00,2048.00
             568.00,2048.00 558.80,2036.00 558.80,2036.00
             558.80,2036.00 548.90,2017.14 548.90,2017.14
             548.90,2017.14 539.02,2009.89 539.02,2009.89
             539.02,2009.89 529.61,1997.39 529.61,1997.39
             529.61,1997.39 514.05,1987.65 514.05,1987.65
             514.05,1987.65 505.00,1979.00 505.00,1979.00 Z" />
</svg>
