<?xml version="1.0" encoding="UTF-8" standalone="no"?>
<!DOCTYPE svg PUBLIC "-//W3C//DTD SVG 20010904//EN"
              "http://www.w3.org/TR/2001/REC-SVG-20010904/DTD/svg10.dtd">

<svg xmlns="http://www.w3.org/2000/svg"
     width="16.6667in" height="37.9306in"
     viewBox="0 0 1200 2731">
  <path id="Selection"
        fill="none" stroke="black" stroke-width="1"
        d="M 322.00,2457.00
           C 320.90,2460.50 319.45,2465.00 316.48,2467.40
             313.87,2469.52 311.06,2468.74 308.00,2469.21
             308.00,2469.21 299.42,2471.97 299.42,2471.97
             296.97,2472.40 294.80,2471.59 291.00,2472.63
             282.53,2474.95 276.84,2478.71 267.00,2478.96
             258.86,2479.17 259.62,2475.32 254.00,2476.57
             248.49,2477.80 243.35,2479.49 239.00,2483.21
             236.36,2485.47 231.51,2491.63 228.00,2491.43
             228.00,2491.43 221.00,2488.55 221.00,2488.55
             215.50,2486.89 200.16,2486.31 197.02,2481.58
             195.61,2479.45 196.00,2473.67 196.00,2470.94
             194.25,2471.11 192.75,2471.32 191.00,2470.94
             186.46,2469.72 181.22,2463.37 174.05,2467.65
             172.20,2468.75 170.87,2470.06 170.15,2472.17
             169.94,2473.47 170.00,2476.55 170.15,2478.00
             179.79,2480.55 179.55,2484.77 183.99,2492.00
             183.99,2492.00 189.51,2500.00 189.51,2500.00
             191.56,2504.60 188.84,2510.39 183.98,2511.74
             178.24,2513.34 173.74,2508.74 169.83,2505.60
             166.54,2502.97 155.87,2496.48 152.00,2495.00
             154.67,2499.38 157.20,2502.92 158.49,2508.00
             158.49,2508.00 161.70,2524.00 161.70,2524.00
             161.70,2524.00 176.73,2547.00 176.73,2547.00
             176.73,2547.00 184.71,2572.98 184.71,2572.98
             187.35,2579.51 190.24,2577.17 193.28,2580.51
             195.62,2583.10 196.78,2592.67 196.16,2596.00
             195.80,2597.93 194.90,2599.31 194.00,2601.00
             194.00,2601.00 198.00,2600.00 198.00,2600.00
             198.00,2600.00 199.00,2606.00 199.00,2606.00
             207.34,2608.37 210.43,2612.64 208.49,2621.00
             208.05,2622.89 207.79,2624.96 206.41,2626.44
             204.20,2628.81 193.73,2631.74 192.32,2637.10
             190.80,2642.87 195.47,2649.58 196.43,2655.00
             197.25,2659.59 194.90,2663.97 193.00,2668.00
             201.13,2668.17 200.36,2671.31 206.00,2673.23
             208.45,2673.84 210.52,2673.19 213.00,2673.23
             219.92,2673.95 222.42,2676.34 228.00,2678.51
             231.19,2679.74 232.18,2679.20 236.00,2681.00
             236.00,2681.00 252.00,2674.41 252.00,2674.41
             255.45,2673.58 260.07,2674.49 263.00,2673.40
             266.64,2672.05 267.95,2668.99 271.17,2667.58
             277.47,2664.83 284.32,2665.07 291.00,2665.22
             295.01,2664.95 299.22,2663.75 303.00,2665.22
             312.50,2669.74 308.57,2672.89 322.00,2674.24
             323.79,2674.34 326.18,2674.88 327.90,2674.24
             331.23,2673.21 332.69,2668.81 334.35,2666.00
             339.08,2657.95 347.30,2652.37 347.50,2645.00
             347.70,2638.03 344.66,2637.71 341.93,2632.96
             339.90,2629.44 340.45,2626.07 338.83,2623.09
             337.33,2620.33 334.67,2618.84 333.17,2615.96
             332.17,2614.03 331.50,2608.34 331.32,2606.00
             330.59,2596.30 333.87,2586.79 339.63,2579.04
             339.63,2579.04 345.36,2572.83 345.36,2572.83
             347.37,2570.23 347.79,2567.84 350.27,2565.38
             350.27,2565.38 356.61,2560.47 356.61,2560.47
             356.61,2560.47 361.39,2554.27 361.39,2554.27
             364.32,2551.32 367.03,2551.54 369.11,2549.31
             369.11,2549.31 371.67,2545.36 371.67,2545.36
             372.56,2544.14 373.87,2543.09 374.22,2541.63
             374.90,2539.95 374.22,2536.87 374.22,2535.00
             373.63,2528.36 373.91,2523.27 371.00,2517.00
             357.81,2520.08 359.73,2511.94 357.26,2503.00
             355.52,2496.73 353.12,2492.70 356.02,2486.11
             357.74,2482.18 359.91,2482.79 362.67,2480.44
             365.26,2478.25 366.65,2475.02 368.00,2472.00
             360.95,2468.34 348.84,2464.58 341.00,2463.00
             334.16,2467.18 327.86,2458.85 322.00,2457.00 Z" />
</svg>
