<?xml version="1.0" encoding="UTF-8" standalone="no"?>
<!DOCTYPE svg PUBLIC "-//W3C//DTD SVG 20010904//EN"
              "http://www.w3.org/TR/2001/REC-SVG-20010904/DTD/svg10.dtd">

<svg xmlns="http://www.w3.org/2000/svg"
     width="16.6667in" height="37.9306in"
     viewBox="0 0 1200 2731">
  <path id="Selection #3"
        fill="none" stroke="black" stroke-width="1"
        d="M 542.00,2137.00
           C 542.00,2137.00 538.13,2154.00 538.13,2154.00
             538.13,2154.00 534.70,2160.97 534.70,2160.97
             534.70,2160.97 526.18,2160.97 526.18,2160.97
             526.18,2160.97 526.18,2171.00 526.18,2171.00
             526.18,2171.00 531.42,2180.00 531.42,2180.00
             531.42,2180.00 529.81,2189.00 529.81,2189.00
             529.81,2189.00 534.00,2204.00 534.00,2204.00
             526.63,2204.26 522.40,2208.35 518.00,2214.00
             511.65,2209.36 510.57,2210.28 504.00,2214.00
             501.75,2203.59 492.77,2202.80 484.11,2206.00
             484.23,2207.38 484.62,2208.36 484.11,2209.83
             484.00,2210.63 476.47,2221.50 475.73,2221.98
             473.84,2223.20 471.36,2222.87 469.58,2224.60
             467.37,2226.76 467.14,2232.05 467.00,2235.00
             455.36,2233.36 449.28,2230.51 437.00,2234.00
             437.00,2234.00 430.43,2215.00 430.43,2215.00
             428.83,2209.09 429.76,2207.44 428.98,2205.00
             427.61,2200.65 422.68,2197.55 421.78,2191.00
             420.74,2183.38 427.68,2180.11 426.47,2173.00
             426.12,2170.99 421.92,2156.44 421.07,2155.31
             419.77,2153.60 418.85,2153.59 417.00,2153.00
             412.68,2162.37 407.20,2160.56 398.00,2163.00
             398.00,2163.00 398.00,2157.00 398.00,2157.00
             398.00,2157.00 384.00,2158.33 384.00,2158.33
             381.82,2158.30 379.51,2157.04 377.38,2158.33
             372.14,2160.79 371.09,2170.65 368.15,2174.68
             364.83,2179.24 360.75,2178.31 356.02,2186.02
             352.66,2191.47 350.58,2196.68 349.46,2203.00
             348.98,2205.71 349.26,2210.71 347.98,2212.70
             345.40,2216.73 339.07,2216.84 335.00,2216.00
             336.52,2207.51 336.09,2207.30 335.00,2199.00
             332.96,2199.42 324.63,2200.67 323.60,2201.64
             321.49,2203.62 322.00,2209.23 322.00,2212.00
             320.33,2211.24 318.80,2210.68 317.38,2209.45
             314.27,2206.76 307.62,2194.62 305.00,2206.00
             305.00,2206.00 296.00,2205.00 296.00,2205.00
             296.00,2208.31 296.22,2213.97 295.45,2217.00
             294.56,2220.46 292.29,2223.43 291.79,2227.00
             291.08,2231.98 294.26,2234.58 293.34,2238.98
             292.45,2243.24 288.98,2244.19 287.75,2247.21
             286.21,2251.00 289.08,2254.36 286.85,2259.99
             285.51,2263.39 280.35,2268.06 277.67,2272.00
             277.67,2272.00 270.45,2283.00 270.45,2283.00
             270.45,2283.00 266.19,2290.79 266.19,2290.79
             266.19,2290.79 261.96,2295.36 261.96,2295.36
             261.96,2295.36 260.04,2298.59 260.04,2298.59
             257.41,2301.86 246.80,2306.89 246.72,2306.95
             244.55,2308.82 244.75,2312.54 243.07,2314.60
             241.21,2316.88 238.86,2315.93 236.72,2318.35
             234.57,2320.78 234.75,2324.94 232.32,2329.00
             229.72,2333.32 224.60,2337.36 223.61,2340.09
             222.45,2343.31 224.31,2347.86 225.28,2351.00
             228.26,2360.65 234.80,2368.66 240.33,2377.00
             244.37,2383.09 249.49,2387.29 243.00,2393.00
             245.27,2405.60 244.78,2404.87 245.00,2417.00
             245.15,2424.85 247.28,2423.83 250.03,2430.00
             250.03,2430.00 253.83,2442.00 253.83,2442.00
             255.47,2446.19 257.15,2447.53 258.56,2453.00
             260.17,2459.26 255.13,2469.11 259.63,2474.90
             263.03,2478.90 273.48,2476.24 278.00,2474.90
             278.00,2474.90 292.00,2470.39 292.00,2470.39
             292.00,2470.39 300.00,2469.61 300.00,2469.61
             300.00,2469.61 308.00,2467.21 308.00,2467.21
             310.79,2466.77 313.23,2467.32 315.66,2465.40
             318.75,2462.96 319.47,2458.65 320.00,2455.00
             328.91,2455.72 326.83,2460.07 335.00,2461.83
             339.01,2462.63 340.39,2461.37 344.00,2461.83
             351.27,2462.88 360.11,2466.88 367.00,2469.30
             367.00,2469.30 376.83,2472.17 376.83,2472.17
             380.28,2474.13 382.69,2478.93 386.09,2481.49
             387.58,2482.62 402.90,2487.29 405.00,2487.56
             412.36,2488.49 411.94,2479.82 418.10,2474.23
             422.86,2469.91 429.01,2471.00 435.00,2471.00
             435.00,2471.00 435.00,2475.00 435.00,2475.00
             435.00,2475.00 440.00,2475.00 440.00,2475.00
             442.07,2468.99 445.28,2465.12 451.00,2470.00
             462.04,2462.44 459.08,2463.28 471.00,2466.00
             471.00,2466.00 472.00,2460.00 472.00,2460.00
             485.44,2466.26 478.82,2464.33 483.68,2468.03
             485.13,2469.13 486.79,2469.11 488.31,2470.59
             490.09,2472.34 490.67,2475.46 492.65,2477.70
             494.76,2480.10 496.90,2480.16 499.37,2483.14
             502.59,2487.04 503.23,2492.57 508.10,2495.85
             512.84,2499.04 515.74,2497.10 519.00,2497.41
             523.10,2497.92 526.44,2501.48 530.27,2497.41
             532.03,2495.44 533.18,2488.78 533.87,2486.00
             534.85,2482.10 537.14,2473.26 538.91,2470.00
             538.91,2470.00 542.73,2464.00 542.73,2464.00
             545.06,2459.50 544.03,2457.73 549.00,2455.00
             549.00,2447.21 549.03,2439.73 553.96,2433.13
             558.09,2427.61 561.55,2431.16 563.83,2423.98
             563.83,2423.98 572.70,2383.00 572.70,2383.00
             573.42,2377.98 572.42,2374.21 573.76,2369.00
             576.13,2359.74 581.05,2355.09 585.00,2347.00
             583.29,2346.10 579.77,2344.51 578.51,2343.31
             576.14,2341.05 573.77,2333.24 574.10,2330.00
             574.10,2330.00 576.11,2322.00 576.11,2322.00
             576.55,2319.30 575.33,2316.27 576.11,2314.17
             576.74,2310.97 580.48,2309.70 581.97,2306.83
             583.08,2304.58 582.06,2298.90 581.97,2296.00
             584.00,2295.97 586.80,2296.15 588.50,2294.98
             592.18,2292.45 596.40,2276.30 595.18,2272.00
             593.78,2267.05 587.38,2260.14 584.00,2256.00
             591.15,2255.42 596.33,2256.14 597.00,2248.00
             597.00,2248.00 591.00,2250.00 591.00,2250.00
             588.88,2245.57 586.97,2242.98 589.56,2238.10
             591.88,2233.73 596.56,2233.17 595.84,2227.04
             595.34,2222.85 591.92,2221.39 589.18,2218.70
             587.40,2216.95 581.72,2209.35 580.90,2207.17
             579.93,2204.59 581.30,2203.05 582.69,2200.96
             588.71,2191.92 592.81,2194.79 601.09,2200.00
             603.32,2192.43 602.84,2185.68 601.09,2178.00
             599.27,2169.18 594.48,2167.83 602.00,2163.00
             600.06,2158.89 598.90,2158.39 596.42,2155.00
             596.42,2155.00 593.08,2149.30 593.08,2149.30
             591.06,2146.46 584.14,2141.94 581.00,2139.71
             576.01,2136.15 573.36,2133.25 567.00,2133.02
             564.45,2132.93 561.32,2132.88 559.00,2134.02
             556.35,2135.33 554.17,2138.32 551.58,2138.79
             550.06,2139.07 543.98,2137.40 542.00,2137.00 Z" />
</svg>
