<?xml version="1.0" encoding="UTF-8" standalone="no"?>
<!DOCTYPE svg PUBLIC "-//W3C//DTD SVG 20010904//EN"
              "http://www.w3.org/TR/2001/REC-SVG-20010904/DTD/svg10.dtd">

<svg xmlns="http://www.w3.org/2000/svg"
     width="16.6667in" height="37.9306in"
     viewBox="0 0 1200 2731">
  <path id="Selection #13"
        fill="none" stroke="black" stroke-width="1"
        d="M 619.00,1898.00
           C 619.00,1898.00 607.00,1893.76 607.00,1893.76
             607.00,1893.76 599.00,1895.54 599.00,1895.54
             599.00,1895.54 583.00,1898.53 583.00,1898.53
             583.00,1898.53 577.00,1897.78 577.00,1897.78
             577.00,1897.78 563.00,1899.71 563.00,1899.71
             563.00,1899.71 548.00,1901.00 548.00,1901.00
             549.11,1907.60 552.68,1907.36 551.74,1911.11
             550.70,1915.26 542.66,1916.51 539.00,1916.81
             533.59,1917.26 528.46,1914.92 526.00,1915.02
             520.58,1915.25 515.58,1922.37 514.00,1927.00
             516.96,1927.00 521.27,1926.77 524.00,1927.72
             527.28,1928.87 529.32,1931.42 533.00,1931.45
             539.16,1931.51 543.06,1926.24 556.00,1927.00
             553.93,1930.16 552.20,1933.56 548.90,1935.59
             541.99,1939.82 538.75,1938.16 533.00,1939.39
             531.28,1939.75 518.57,1944.65 517.29,1945.53
             514.56,1947.43 515.39,1949.37 513.98,1952.00
             511.52,1956.60 508.81,1957.47 504.00,1957.00
             504.00,1957.00 504.00,1963.00 504.00,1963.00
             501.21,1963.06 497.71,1963.09 495.18,1964.43
             490.87,1966.71 485.89,1977.30 488.83,1981.78
             490.75,1984.71 495.78,1986.13 499.00,1987.00
             499.00,1987.00 504.00,1976.00 504.00,1976.00
             504.00,1976.00 516.04,1986.96 516.04,1986.96
             516.04,1986.96 531.37,1996.39 531.37,1996.39
             531.37,1996.39 539.30,2007.89 539.30,2007.89
             539.30,2007.89 549.47,2015.14 549.47,2015.14
             549.47,2015.14 562.63,2038.59 562.63,2038.59
             562.63,2038.59 567.37,2042.49 567.37,2042.49
             567.37,2042.49 573.10,2048.57 573.10,2048.57
             573.10,2048.57 589.00,2052.25 589.00,2052.25
             589.00,2052.25 614.00,2054.96 614.00,2054.96
             614.00,2054.96 625.00,2052.00 625.00,2052.00
             625.00,2052.00 625.00,2049.00 625.00,2049.00
             625.00,2049.00 616.00,2047.00 616.00,2047.00
             623.70,2040.93 626.14,2042.68 634.00,2047.00
             634.00,2047.00 637.00,2041.00 637.00,2041.00
             637.00,2041.00 625.00,2030.00 625.00,2030.00
             625.00,2030.00 632.00,2028.12 632.00,2028.12
             632.00,2028.12 639.00,2031.41 639.00,2031.41
             639.00,2031.41 652.86,2032.81 652.86,2032.81
             652.86,2032.81 656.00,2029.00 656.00,2029.00
             656.00,2029.00 663.00,2030.00 663.00,2030.00
             663.00,2030.00 664.00,2022.00 664.00,2022.00
             664.00,2022.00 673.00,2023.00 673.00,2023.00
             670.76,2017.40 671.60,2012.75 673.00,2007.00
             673.00,2007.00 681.00,2012.00 681.00,2012.00
             681.00,2012.00 682.00,2011.00 682.00,2011.00
             680.25,2003.83 682.79,2004.89 685.13,1999.00
             685.13,1999.00 687.00,1992.00 687.00,1992.00
             687.00,1992.00 692.00,1993.00 692.00,1993.00
             692.00,1993.00 691.00,1973.00 691.00,1973.00
             691.00,1973.00 685.00,1984.00 685.00,1984.00
             683.62,1976.29 682.17,1964.51 690.00,1960.00
             689.35,1953.80 687.19,1953.40 690.00,1948.00
             691.04,1950.62 693.01,1955.35 693.40,1958.00
             694.16,1963.25 691.12,1965.97 696.00,1968.00
             695.36,1961.41 695.95,1961.31 701.00,1957.00
             701.00,1957.00 698.54,1973.00 698.54,1973.00
             698.54,1973.00 699.93,1983.00 699.93,1983.00
             699.93,1983.00 699.93,1995.00 699.93,1995.00
             699.93,1995.00 706.56,2010.00 706.56,2010.00
             706.56,2010.00 705.00,2018.00 705.00,2018.00
             709.87,2015.28 709.72,2011.02 712.07,2006.00
             712.07,2006.00 718.47,1995.83 718.47,1995.83
             719.39,1992.98 718.36,1989.95 718.47,1987.00
             718.47,1987.00 722.00,1972.00 722.00,1972.00
             728.36,1971.12 730.21,1968.22 735.09,1964.83
             735.09,1964.83 740.46,1961.33 740.46,1961.33
             741.88,1960.03 742.55,1958.21 744.30,1957.25
             746.84,1955.86 760.63,1954.85 765.00,1948.00
             757.29,1948.24 758.18,1944.63 760.00,1939.00
             760.00,1939.00 752.83,1934.08 752.83,1934.08
             749.79,1932.08 742.30,1929.20 750.00,1927.00
             750.00,1927.00 749.00,1924.00 749.00,1924.00
             743.44,1924.54 742.00,1924.64 740.00,1919.00
             740.00,1919.00 733.00,1920.68 733.00,1920.68
             733.00,1920.68 726.00,1920.68 726.00,1920.68
             722.26,1920.85 714.10,1923.32 711.99,1926.53
             710.26,1929.17 712.09,1931.34 709.00,1938.00
             704.89,1929.66 702.34,1934.78 696.04,1932.57
             689.60,1930.31 695.40,1928.55 683.00,1929.00
             683.00,1929.00 687.00,1943.00 687.00,1943.00
             679.25,1940.58 682.36,1936.57 678.30,1932.89
             678.30,1932.89 661.00,1923.00 661.00,1923.00
             661.23,1930.27 663.20,1931.53 666.00,1938.00
             659.84,1935.41 658.72,1934.39 652.00,1936.00
             652.00,1936.00 647.00,1924.00 647.00,1924.00
             651.34,1921.47 654.51,1917.28 648.00,1915.00
             649.20,1913.48 650.70,1911.75 651.71,1910.00
             652.59,1907.80 652.61,1906.32 651.71,1904.02
             649.83,1897.59 642.79,1897.16 637.00,1896.00
             635.49,1902.82 637.53,1905.50 639.00,1912.00
             636.71,1911.99 633.25,1912.21 631.27,1910.98
             628.19,1909.05 626.17,1901.47 626.61,1898.00
             626.61,1898.00 628.00,1892.00 628.00,1892.00
             620.96,1889.20 619.99,1891.13 619.00,1898.00 Z" />
</svg>
