<?xml version="1.0" encoding="UTF-8" standalone="no"?>
<!DOCTYPE svg PUBLIC "-//W3C//DTD SVG 20010904//EN"
              "http://www.w3.org/TR/2001/REC-SVG-20010904/DTD/svg10.dtd">

<svg xmlns="http://www.w3.org/2000/svg"
     width="16.6667in" height="37.9306in"
     viewBox="0 0 1200 2731">
  <path id="Selection #14"
        fill="none" stroke="black" stroke-width="1"
        d="M 595.00,1755.00
           C 595.00,1755.00 596.00,1771.00 596.00,1771.00
             596.00,1771.00 593.00,1771.00 593.00,1771.00
             593.00,1771.00 594.36,1783.00 594.36,1783.00
             594.41,1785.87 593.32,1787.95 593.80,1789.83
             594.63,1793.01 599.22,1795.03 600.98,1798.17
             603.22,1802.16 601.60,1808.84 601.86,1811.00
             602.26,1814.17 604.55,1816.11 604.93,1819.00
             605.66,1824.65 598.96,1830.79 599.06,1835.00
             599.18,1839.67 607.09,1849.32 609.33,1854.00
             612.40,1860.42 611.92,1873.42 617.14,1877.64
             621.61,1881.26 625.11,1876.80 630.00,1875.89
             633.43,1875.25 636.93,1877.02 640.00,1878.44
             650.36,1883.24 650.84,1890.84 663.00,1891.00
             663.00,1887.46 663.22,1884.41 662.02,1881.00
             659.71,1874.31 652.16,1866.57 662.02,1863.00
             662.76,1870.13 666.46,1875.88 673.00,1879.00
             673.00,1879.00 678.00,1873.00 678.00,1873.00
             679.14,1879.17 677.29,1879.46 675.00,1885.00
             675.00,1885.00 676.00,1886.00 676.00,1886.00
             679.92,1885.76 685.61,1885.88 688.73,1888.58
             691.82,1891.27 690.80,1893.38 695.00,1896.00
             695.36,1891.50 695.54,1890.96 699.00,1888.00
             699.78,1889.54 701.53,1891.83 701.60,1893.46
             701.68,1895.39 699.46,1899.13 700.33,1903.00
             701.64,1908.88 712.40,1917.04 718.00,1919.00
             718.00,1919.00 719.00,1913.00 719.00,1913.00
             727.04,1918.91 724.36,1914.53 733.00,1918.00
             733.00,1918.00 727.56,1909.00 727.56,1909.00
             727.20,1907.28 728.05,1905.61 728.52,1904.00
             730.40,1897.52 729.74,1896.78 736.00,1893.00
             736.00,1893.00 737.00,1896.00 737.00,1896.00
             737.00,1896.00 741.00,1895.00 741.00,1895.00
             740.59,1897.82 740.83,1898.97 738.00,1900.00
             738.00,1900.00 738.00,1904.00 738.00,1904.00
             738.00,1904.00 747.00,1905.00 747.00,1905.00
             747.00,1905.00 747.00,1900.00 747.00,1900.00
             747.00,1900.00 742.00,1899.00 742.00,1899.00
             742.00,1899.00 742.00,1895.00 742.00,1895.00
             742.00,1895.00 749.00,1895.00 749.00,1895.00
             749.00,1895.00 746.00,1892.00 746.00,1892.00
             751.68,1887.05 753.27,1892.10 757.55,1889.90
             757.55,1889.90 767.09,1880.08 767.09,1880.08
             767.09,1880.08 781.90,1868.48 781.90,1868.48
             790.56,1860.95 788.02,1853.68 790.93,1849.18
             795.82,1841.66 804.37,1842.10 812.00,1842.00
             816.28,1841.94 821.37,1841.72 821.09,1836.03
             821.03,1834.92 820.71,1833.59 820.02,1832.70
             818.18,1830.32 813.91,1830.43 812.02,1827.58
             810.71,1825.60 811.00,1821.38 811.00,1819.00
             815.61,1818.95 818.21,1819.22 819.62,1813.98
             819.94,1812.62 820.12,1811.39 819.62,1810.01
             817.89,1804.86 809.51,1802.82 804.24,1794.99
             796.57,1783.57 798.79,1782.58 794.74,1772.01
             793.29,1768.22 791.37,1767.14 790.72,1764.83
             789.72,1762.07 791.14,1758.92 790.72,1756.00
             790.37,1751.95 788.03,1750.25 785.00,1748.00
             785.00,1748.00 782.00,1763.00 782.00,1763.00
             782.00,1763.00 764.00,1759.00 764.00,1759.00
             764.00,1759.00 763.00,1745.93 763.00,1745.93
             763.00,1745.93 766.89,1745.93 766.89,1745.93
             770.95,1745.18 770.96,1742.28 769.62,1739.00
             767.52,1733.86 762.54,1731.02 759.00,1727.00
             764.83,1726.98 766.49,1727.71 769.00,1722.00
             761.75,1719.37 757.39,1713.27 754.99,1706.00
             753.50,1701.50 753.96,1696.06 750.00,1693.00
             750.00,1697.81 749.80,1700.19 750.89,1705.00
             751.42,1707.36 753.37,1714.05 753.22,1716.00
             752.52,1725.60 741.35,1720.61 737.00,1717.32
             729.32,1711.50 718.64,1701.36 713.85,1693.00
             710.27,1686.76 713.63,1679.34 705.98,1676.38
             697.75,1673.19 690.92,1685.48 688.62,1687.57
             686.24,1689.75 683.01,1690.19 680.00,1691.00
             676.35,1677.48 675.00,1683.50 675.00,1667.00
             675.00,1667.00 660.00,1667.00 660.00,1667.00
             650.44,1667.06 652.64,1668.34 650.72,1684.00
             648.33,1703.37 649.15,1699.07 643.71,1718.00
             642.57,1721.98 640.86,1729.79 638.49,1732.83
             636.16,1735.82 630.91,1740.45 627.00,1740.57
             622.89,1740.70 613.51,1737.15 610.36,1739.69
             607.95,1741.62 609.29,1744.38 608.03,1746.91
             605.76,1751.48 599.85,1754.61 595.00,1755.00 Z" />
</svg>
