<?xml version="1.0" encoding="UTF-8" standalone="no"?>
<!DOCTYPE svg PUBLIC "-//W3C//DTD SVG 20010904//EN"
              "http://www.w3.org/TR/2001/REC-SVG-20010904/DTD/svg10.dtd">

<svg xmlns="http://www.w3.org/2000/svg"
     width="16.6667in" height="37.9306in"
     viewBox="0 0 1200 2731">
  <path id="Selection #10"
        fill="none" stroke="black" stroke-width="1"
        d="M 175.00,1589.00
           C 175.00,1589.00 182.31,1612.00 182.31,1612.00
             183.12,1615.75 181.84,1617.83 182.31,1622.00
             182.31,1622.00 186.55,1641.00 186.55,1641.00
             189.41,1648.95 196.32,1655.26 196.13,1664.00
             195.92,1673.52 200.24,1675.96 203.04,1684.00
             204.40,1687.92 204.07,1695.64 204.00,1700.00
             203.79,1711.37 193.27,1716.19 192.70,1724.00
             192.70,1724.00 194.53,1746.00 194.53,1746.00
             194.91,1750.93 192.71,1754.49 191.05,1759.00
             189.60,1762.96 186.36,1772.96 184.30,1775.99
             184.30,1775.99 178.49,1782.28 178.49,1782.28
             176.01,1785.32 175.73,1788.27 173.50,1790.59
             171.16,1793.02 166.11,1794.41 163.00,1796.21
             157.70,1799.29 156.23,1803.19 150.00,1804.52
             143.10,1805.99 140.33,1802.46 137.00,1802.99
             134.39,1803.39 129.56,1808.17 127.00,1810.00
             128.41,1817.53 135.02,1826.70 131.40,1835.00
             130.59,1836.87 123.38,1847.03 121.79,1848.15
             117.57,1851.11 110.57,1848.64 107.98,1859.00
             107.18,1862.22 109.49,1872.25 110.20,1876.00
             110.20,1876.00 112.62,1896.00 112.62,1896.00
             113.75,1902.31 115.83,1905.54 115.79,1912.00
             115.79,1912.00 115.79,1925.59 115.79,1925.59
             116.73,1928.12 122.46,1929.77 125.00,1930.66
             139.80,1935.79 137.66,1935.80 153.00,1936.00
             169.09,1936.22 170.65,1947.65 182.98,1949.27
             190.27,1950.23 189.48,1941.93 194.21,1940.41
             196.44,1939.70 199.26,1941.55 201.00,1942.79
             208.88,1948.44 207.00,1954.45 207.00,1963.00
             207.00,1963.00 220.00,1959.00 220.00,1959.00
             220.00,1959.00 220.00,1967.00 220.00,1967.00
             220.00,1967.00 229.00,1965.00 229.00,1965.00
             229.00,1965.00 231.00,1973.00 231.00,1973.00
             231.00,1973.00 237.00,1973.00 237.00,1973.00
             237.15,1976.24 238.55,1990.31 239.99,1992.47
             240.88,1993.81 242.60,1994.94 244.02,1995.65
             250.21,1998.77 252.27,1994.69 251.83,1989.00
             250.78,1975.44 249.78,1965.26 246.37,1952.00
             246.37,1952.00 240.21,1933.00 240.21,1933.00
             240.00,1929.19 242.82,1928.23 243.85,1924.83
             243.85,1924.83 243.85,1910.00 243.85,1910.00
             249.78,1914.89 248.96,1918.35 257.00,1919.00
             253.45,1907.79 265.55,1907.25 268.71,1909.03
             273.50,1911.72 277.65,1922.01 280.00,1927.00
             291.24,1918.86 285.35,1914.44 294.02,1910.30
             300.93,1906.99 300.68,1912.60 304.21,1913.55
             307.01,1914.30 308.92,1911.22 311.42,1911.67
             311.42,1911.67 321.00,1918.20 321.00,1918.20
             325.14,1920.47 328.46,1920.00 333.00,1920.00
             333.00,1920.00 335.28,1939.00 335.28,1939.00
             335.28,1939.00 323.97,1962.00 323.97,1962.00
             323.97,1962.00 323.00,1973.00 323.00,1973.00
             328.52,1971.08 331.17,1962.63 337.00,1962.70
             344.74,1962.80 340.54,1971.91 342.06,1974.61
             343.84,1977.75 350.62,1980.31 354.00,1981.00
             354.00,1981.00 361.74,1966.00 361.74,1966.00
             361.74,1966.00 374.69,1941.00 374.69,1941.00
             374.69,1941.00 383.39,1925.98 383.39,1925.98
             383.39,1925.98 404.00,1921.00 404.00,1921.00
             404.00,1921.00 395.81,1903.00 395.81,1903.00
             394.93,1898.03 398.96,1893.88 394.69,1889.53
             389.31,1884.07 376.97,1885.13 374.60,1879.78
             374.60,1879.78 373.56,1869.00 373.56,1869.00
             373.56,1869.00 371.08,1855.28 371.08,1855.28
             370.76,1852.26 371.93,1850.08 371.08,1847.00
             371.08,1847.00 367.00,1837.00 367.00,1837.00
             374.56,1832.59 370.70,1829.63 371.22,1821.00
             371.15,1818.19 372.31,1813.60 371.22,1811.21
             369.93,1807.39 367.75,1809.71 364.00,1799.00
             369.81,1797.44 378.41,1795.20 373.07,1787.32
             371.45,1784.94 362.79,1778.99 360.00,1777.00
             360.00,1777.00 331.09,1755.68 331.09,1755.68
             328.15,1753.00 326.52,1750.20 324.28,1747.00
             324.28,1747.00 305.65,1713.15 305.65,1713.15
             301.46,1707.21 296.38,1712.99 288.22,1704.70
             284.35,1700.77 283.06,1693.26 280.69,1688.00
             274.70,1674.71 269.49,1670.46 266.00,1655.00
             266.00,1655.00 260.00,1655.00 260.00,1655.00
             259.26,1638.97 254.25,1636.47 244.15,1625.00
             244.15,1625.00 226.85,1605.00 226.85,1605.00
             219.67,1596.84 216.20,1594.90 214.00,1584.09
             206.42,1586.11 206.00,1584.68 199.00,1584.09
             194.34,1583.85 179.81,1587.41 175.00,1589.00 Z" />
</svg>
