<?xml version="1.0" encoding="UTF-8" standalone="no"?>
<!DOCTYPE svg PUBLIC "-//W3C//DTD SVG 20010904//EN"
              "http://www.w3.org/TR/2001/REC-SVG-20010904/DTD/svg10.dtd">

<svg xmlns="http://www.w3.org/2000/svg"
     width="16.6667in" height="37.9306in"
     viewBox="0 0 1200 2731">
  <path id="Selection #22"
        fill="none" stroke="black" stroke-width="1"
        d="M 832.00,748.00
           C 832.00,748.00 822.86,769.00 822.86,769.00
             822.86,769.00 814.52,784.91 814.52,784.91
             814.52,784.91 793.00,799.67 793.00,799.67
             793.00,799.67 768.00,816.98 768.00,816.98
             768.00,816.98 748.00,831.00 748.00,831.00
             752.21,836.08 772.50,851.50 779.00,856.58
             781.81,858.77 789.48,863.91 790.46,867.09
             791.33,869.91 786.49,881.52 785.33,885.00
             785.33,885.00 778.31,906.00 778.31,906.00
             778.31,906.00 769.76,931.00 769.76,931.00
             767.49,940.02 775.10,962.24 776.00,973.00
             776.00,973.00 783.00,971.00 783.00,971.00
             783.00,971.00 785.59,979.00 785.59,979.00
             786.02,981.99 784.63,984.13 787.01,987.91
             789.88,992.45 797.71,995.73 801.79,999.52
             804.62,1002.14 805.60,1004.95 807.79,1008.00
             807.79,1008.00 815.30,1017.00 815.30,1017.00
             819.71,1023.66 818.48,1034.13 825.59,1043.88
             829.07,1048.64 830.94,1047.13 834.83,1049.84
             837.31,1051.57 841.60,1057.23 842.86,1060.00
             846.88,1068.82 840.78,1079.44 841.43,1084.00
             841.43,1084.00 842.89,1090.00 842.89,1090.00
             842.97,1094.02 841.62,1092.69 842.89,1099.00
             842.89,1099.00 845.00,1099.00 845.00,1099.00
             850.02,1091.94 853.68,1084.32 863.00,1084.00
             863.00,1084.00 864.00,1075.21 864.00,1075.21
             867.99,1075.72 882.26,1077.02 885.59,1075.21
             888.00,1074.27 888.07,1071.62 890.41,1070.02
             892.18,1068.80 894.46,1069.18 895.83,1067.43
             897.17,1065.70 896.91,1062.18 897.34,1060.00
             897.93,1056.99 899.31,1054.50 901.05,1052.00
             907.36,1043.02 911.96,1046.71 916.61,1043.15
             918.91,1041.39 921.45,1035.74 922.69,1033.00
             926.26,1025.07 932.52,1005.54 934.33,997.00
             936.25,987.99 934.10,982.20 939.72,974.00
             939.72,974.00 957.32,950.17 957.32,950.17
             957.32,950.17 972.61,936.71 972.61,936.71
             977.69,931.03 981.93,920.57 982.00,913.00
             982.00,913.00 975.00,914.00 975.00,914.00
             974.35,906.77 971.37,895.77 964.98,891.60
             960.17,888.46 954.94,892.02 950.10,882.00
             947.83,877.31 949.93,876.38 950.86,872.00
             950.86,872.00 950.86,858.00 950.86,858.00
             950.86,858.00 936.39,855.40 936.39,855.40
             936.39,855.40 930.00,844.00 930.00,844.00
             930.00,844.00 941.00,846.00 941.00,846.00
             942.81,843.28 948.45,835.66 948.95,833.00
             949.62,829.48 946.85,826.15 948.20,823.27
             949.50,820.52 953.76,820.05 956.30,817.36
             957.76,815.83 963.84,802.27 964.32,800.04
             965.56,794.20 955.05,791.95 951.41,788.39
             948.20,785.25 949.08,782.11 943.96,781.13
             943.96,781.13 903.00,776.10 903.00,776.10
             903.00,776.10 853.00,755.99 853.00,755.99
             846.38,753.26 838.90,749.62 832.00,748.00 Z" />
</svg>
