<?xml version="1.0" encoding="UTF-8" standalone="no"?>
<!DOCTYPE svg PUBLIC "-//W3C//DTD SVG 20010904//EN"
              "http://www.w3.org/TR/2001/REC-SVG-20010904/DTD/svg10.dtd">

<svg xmlns="http://www.w3.org/2000/svg"
     width="16.6667in" height="37.9306in"
     viewBox="0 0 1200 2731">
  <path id="Selection #6"
        fill="none" stroke="black" stroke-width="1"
        d="M 296.00,2011.00
           C 293.09,2019.67 299.17,2016.68 300.00,2027.00
             307.60,2024.27 307.81,2022.00 316.00,2025.00
             312.15,2031.59 305.57,2038.20 298.00,2040.24
             298.00,2040.24 287.00,2041.50 287.00,2041.50
             287.00,2041.50 278.00,2045.83 278.00,2045.83
             273.33,2047.88 270.73,2047.89 266.00,2050.95
             255.49,2057.76 259.09,2066.55 255.02,2072.67
             252.11,2077.04 246.40,2077.62 242.02,2075.31
             236.31,2072.30 238.01,2068.99 239.67,2064.00
             239.67,2064.00 245.11,2048.00 245.11,2048.00
             245.65,2045.89 246.61,2043.45 245.11,2041.42
             243.56,2038.98 239.67,2038.42 237.00,2038.00
             237.00,2038.00 227.39,2053.00 227.39,2053.00
             227.39,2053.00 221.58,2060.00 221.58,2060.00
             221.58,2060.00 213.79,2073.57 213.79,2073.57
             213.79,2073.57 200.43,2078.56 200.43,2078.56
             200.43,2078.56 193.41,2089.49 193.41,2089.49
             193.41,2089.49 185.00,2093.00 185.00,2093.00
             185.00,2093.00 187.00,2081.00 187.00,2081.00
             178.62,2082.39 179.43,2090.17 173.82,2092.70
             173.82,2092.70 165.00,2094.24 165.00,2094.24
             161.55,2094.64 159.33,2093.49 156.00,2093.18
             153.52,2092.94 142.03,2093.95 140.10,2095.02
             131.73,2099.68 136.28,2113.05 146.00,2116.00
             143.51,2122.37 140.45,2123.61 139.44,2127.83
             137.89,2134.33 140.21,2149.63 137.70,2158.96
             136.83,2162.21 135.10,2163.19 133.81,2166.09
             133.81,2166.09 131.56,2174.00 131.56,2174.00
             130.37,2176.64 124.90,2183.18 121.35,2192.00
             119.30,2197.11 120.52,2198.84 119.88,2202.00
             119.23,2205.17 112.85,2215.54 109.82,2216.53
             108.32,2217.01 105.58,2216.28 104.00,2216.00
             104.00,2216.00 103.00,2221.00 103.00,2221.00
             103.00,2221.00 113.00,2221.00 113.00,2221.00
             106.61,2225.68 100.89,2227.41 107.00,2236.00
             107.00,2236.00 109.00,2233.00 109.00,2233.00
             110.55,2239.39 110.14,2242.65 109.00,2248.98
             118.88,2249.31 117.91,2252.61 130.00,2248.98
             137.60,2246.67 140.40,2242.72 143.83,2244.09
             150.08,2246.61 148.20,2253.13 148.68,2258.00
             148.68,2258.00 149.91,2265.00 149.91,2265.00
             150.85,2274.59 153.49,2271.38 154.85,2278.00
             155.97,2283.43 153.32,2288.94 153.98,2293.00
             154.15,2294.00 160.24,2307.26 162.00,2315.00
             170.37,2313.32 171.41,2311.65 179.00,2317.00
             179.00,2317.00 199.00,2304.00 199.00,2304.00
             201.99,2309.80 212.84,2324.14 218.04,2327.77
             220.51,2329.49 224.77,2332.81 227.81,2331.18
             231.47,2329.22 232.23,2323.48 233.61,2320.00
             233.61,2320.00 237.00,2313.00 237.00,2313.00
             237.00,2313.00 242.00,2315.00 242.00,2315.00
             243.58,2303.83 246.00,2305.55 250.83,2302.86
             254.18,2301.00 253.78,2300.25 258.00,2299.00
             259.19,2291.82 261.58,2294.10 264.80,2289.61
             264.80,2289.61 268.17,2283.00 268.17,2283.00
             268.17,2283.00 276.67,2270.01 276.67,2270.01
             276.67,2270.01 284.68,2259.99 284.68,2259.99
             287.01,2255.16 284.20,2251.46 285.43,2247.05
             286.70,2242.53 290.44,2243.04 291.35,2238.89
             292.19,2235.07 289.40,2231.77 289.53,2228.00
             289.65,2224.72 291.71,2222.03 292.51,2219.00
             292.51,2219.00 294.00,2202.00 294.00,2202.00
             294.00,2202.00 303.00,2204.00 303.00,2204.00
             303.00,2204.00 305.00,2198.00 305.00,2198.00
             316.57,2200.75 313.24,2204.75 320.00,2209.00
             320.02,2204.85 319.53,2200.95 323.89,2198.75
             326.58,2197.39 329.07,2198.91 330.98,2195.81
             332.27,2193.73 331.95,2188.17 332.68,2185.00
             332.68,2185.00 338.33,2171.00 338.33,2171.00
             341.63,2161.21 342.02,2151.93 343.94,2142.00
             343.94,2142.00 350.68,2119.00 350.68,2119.00
             352.26,2115.08 355.75,2111.67 358.05,2108.00
             358.05,2108.00 367.41,2088.01 367.41,2088.01
             369.85,2083.73 372.12,2083.21 374.21,2078.96
             379.22,2068.83 377.24,2060.67 378.60,2057.00
             381.85,2048.21 393.83,2048.63 395.23,2041.00
             395.67,2038.60 394.13,2035.36 393.44,2033.00
             389.99,2021.20 393.60,2028.38 387.18,2016.00
             387.18,2016.00 372.00,1979.00 372.00,1979.00
             372.00,1979.00 354.00,1983.29 354.00,1983.29
             346.19,1982.81 342.57,1972.97 333.06,1979.45
             328.01,1982.88 329.31,1984.88 329.68,1990.00
             330.11,1996.03 326.88,2006.13 323.36,2011.00
             321.94,2012.97 319.55,2015.79 317.00,2016.14
             315.08,2016.41 311.98,2014.62 310.00,2013.99
             310.00,2013.99 296.00,2011.00 296.00,2011.00 Z" />
</svg>
