<?xml version="1.0" encoding="UTF-8" standalone="no"?>
<!DOCTYPE svg PUBLIC "-//W3C//DTD SVG 20010904//EN"
              "http://www.w3.org/TR/2001/REC-SVG-20010904/DTD/svg10.dtd">

<svg xmlns="http://www.w3.org/2000/svg"
     width="16.6667in" height="37.9306in"
     viewBox="0 0 1200 2731">
  <path id="Selection #12"
        fill="none" stroke="black" stroke-width="1"
        d="M 575.00,1756.80
           C 574.71,1765.34 572.49,1763.60 567.21,1768.52
             564.12,1771.39 563.45,1774.32 560.79,1776.26
             558.45,1777.96 547.03,1779.14 544.00,1778.78
             541.89,1778.53 539.97,1777.74 538.00,1777.00
             538.00,1777.00 540.00,1769.00 540.00,1769.00
             540.00,1769.00 529.41,1763.44 529.41,1763.44
             529.41,1763.44 523.78,1756.87 523.78,1756.87
             523.78,1756.87 514.42,1760.63 514.42,1760.63
             514.42,1760.63 504.00,1759.00 504.00,1759.00
             504.00,1759.00 498.58,1768.27 498.58,1768.27
             498.58,1768.27 497.41,1775.17 497.41,1775.17
             497.41,1775.17 494.80,1784.00 494.80,1784.00
             494.80,1784.00 496.84,1790.00 496.84,1790.00
             496.84,1790.00 494.00,1805.00 494.00,1805.00
             490.17,1803.05 483.47,1800.20 479.64,1803.60
             477.86,1805.17 476.25,1809.58 474.51,1812.00
             471.76,1815.79 470.20,1816.34 468.00,1821.00
             468.00,1821.00 466.00,1821.00 466.00,1821.00
             463.13,1811.92 455.49,1801.89 448.72,1795.30
             441.39,1788.17 440.75,1790.69 435.00,1780.00
             425.45,1781.64 422.09,1772.61 414.00,1770.52
             409.43,1769.34 403.69,1771.90 403.23,1777.02
             403.10,1778.47 403.65,1781.43 403.87,1783.00
             403.87,1783.00 405.00,1793.00 405.00,1793.00
             405.00,1793.00 376.00,1788.00 376.00,1788.00
             376.00,1788.00 378.00,1797.00 378.00,1797.00
             378.00,1797.00 367.00,1800.00 367.00,1800.00
             368.84,1808.59 373.04,1806.20 373.84,1812.04
             373.84,1812.04 373.04,1822.00 373.04,1822.00
             372.78,1830.34 376.67,1832.22 370.00,1838.00
             370.00,1838.00 373.23,1847.00 373.23,1847.00
             373.23,1847.00 373.23,1856.00 373.23,1856.00
             373.23,1856.00 376.00,1881.00 376.00,1881.00
             376.00,1881.00 393.00,1885.98 393.00,1885.98
             393.00,1885.98 400.00,1890.00 400.00,1890.00
             397.01,1901.27 396.51,1900.55 401.00,1911.00
             403.59,1909.98 406.17,1908.43 409.00,1908.31
             412.25,1908.17 417.74,1910.37 421.53,1907.40
             427.79,1902.50 424.85,1895.63 427.02,1892.43
             428.43,1890.34 431.71,1889.69 434.00,1889.00
             434.00,1889.00 436.00,1897.00 436.00,1897.00
             436.00,1897.00 444.00,1895.05 444.00,1895.05
             444.00,1895.05 455.00,1899.59 455.00,1899.59
             455.00,1899.59 477.96,1901.15 477.96,1901.15
             477.96,1901.15 485.09,1904.86 485.09,1904.86
             485.09,1904.86 493.00,1904.86 493.00,1904.86
             495.27,1919.48 500.56,1920.89 505.00,1929.00
             514.29,1924.73 518.50,1915.21 524.00,1913.23
             526.39,1912.37 529.55,1913.67 532.00,1914.15
             536.44,1915.11 538.57,1915.14 543.00,1914.15
             544.87,1913.68 548.69,1912.98 549.09,1910.70
             549.49,1908.43 546.90,1906.69 546.00,1901.00
             546.00,1901.00 532.00,1902.00 532.00,1902.00
             532.00,1902.00 529.00,1891.79 529.00,1891.79
             531.92,1892.00 538.49,1892.19 541.00,1891.79
             541.00,1891.79 548.00,1889.08 548.00,1889.08
             551.60,1888.71 553.61,1891.44 558.00,1891.33
             564.73,1891.16 568.89,1887.92 573.03,1883.00
             574.27,1881.51 575.70,1880.02 575.91,1878.00
             576.10,1876.19 574.73,1873.65 574.00,1872.00
             575.75,1871.25 579.85,1869.19 581.58,1869.28
             586.31,1869.55 591.43,1878.24 595.09,1879.30
             599.86,1880.68 602.62,1875.30 605.21,1874.09
             607.04,1873.38 609.99,1873.86 612.00,1874.09
             610.58,1868.35 609.61,1858.77 607.33,1854.00
             605.06,1849.26 597.23,1839.76 597.05,1835.00
             596.90,1830.91 602.20,1826.01 602.87,1821.00
             603.43,1816.86 600.69,1815.45 599.82,1812.00
             599.31,1809.24 601.00,1805.55 599.82,1801.00
             598.18,1795.53 593.53,1794.31 592.17,1790.91
             590.79,1788.27 592.40,1786.51 592.17,1783.00
             592.27,1776.55 587.84,1773.05 594.00,1769.00
             593.71,1766.82 592.94,1757.81 591.98,1756.80
             589.63,1753.64 578.49,1756.37 575.00,1756.80 Z" />
</svg>
